<svg width="1024" height="763" viewBox="0 0 1024 763" fill="none" xmlns="http://www.w3.org/2000/svg">
<path d="M852.701 742.307H1018.5" stroke="#263238" stroke-linecap="round" stroke-linejoin="round"/>
<path d="M72.6918 742.307H836.406" stroke="#263238" stroke-linecap="round" stroke-linejoin="round"/>
<path d="M27.85 742.307H60.4603" stroke="#263238" stroke-linecap="round" stroke-linejoin="round"/>
<path d="M935.726 564.956C935.736 564.919 935.731 564.881 935.712 564.846C935.693 564.811 935.661 564.783 935.62 564.765C935.588 564.74 935.546 564.727 935.503 564.727C935.459 564.727 935.417 564.74 935.386 564.765C930.255 574.853 926.191 585.283 923.239 595.939C920.271 606.591 918.034 617.371 916.539 628.227L915.603 636.391C915.454 637.766 915.262 639.124 915.156 640.481L914.879 644.572C914.73 647.304 914.518 650.037 914.433 652.77V660.986L914.56 665.076C914.56 666.451 914.752 667.809 914.858 669.184C915.113 671.899 915.305 674.632 915.624 677.347C916.262 682.795 917.262 688.209 918.283 693.587C918.288 693.621 918.308 693.652 918.34 693.674C918.371 693.697 918.411 693.709 918.453 693.709C918.5 693.709 918.546 693.695 918.581 693.669C918.617 693.644 918.639 693.608 918.645 693.57C918.645 690.837 918.474 688.122 918.411 685.406C918.347 682.691 918.006 679.976 918.07 677.26C918.134 674.545 918.07 671.83 917.964 669.114L917.857 665.041V660.968V652.839L918.134 644.711L918.24 640.655C918.24 639.298 918.432 637.94 918.517 636.6L919.134 628.471C920.261 617.653 922.136 606.897 924.75 596.252C927.308 585.583 930.98 575.112 935.726 564.956Z" fill="#263238"/>
<path d="M937.151 607.514C937.166 607.477 937.163 607.437 937.143 607.402C937.123 607.366 937.088 607.338 937.045 607.323C937.003 607.312 936.957 607.314 936.917 607.331C936.877 607.347 936.847 607.375 936.832 607.41C931.145 620.973 927.369 635.024 925.579 649.289C924.707 656.408 923.728 663.527 923.601 670.681C923.381 677.838 923.694 684.999 924.537 692.125C924.536 692.159 924.551 692.192 924.579 692.218C924.606 692.243 924.644 692.26 924.686 692.264C924.71 692.267 924.734 692.265 924.757 692.259C924.781 692.253 924.802 692.243 924.82 692.23C924.838 692.217 924.853 692.201 924.862 692.183C924.872 692.165 924.877 692.145 924.877 692.125C925.898 685.006 926.515 677.904 927.111 670.803C927.706 663.701 927.813 656.582 928.387 649.48C928.928 642.412 929.958 635.374 931.472 628.401C932.893 621.359 934.789 614.386 937.151 607.514Z" fill="#263238"/>
<path d="M965.975 622.431C965.938 622.408 965.894 622.396 965.848 622.396C965.802 622.396 965.757 622.408 965.72 622.431C958.518 626.222 952.032 630.855 946.469 636.182C943.663 638.854 941.144 641.72 938.938 644.746L937.385 647.13L936.173 649.619C935.765 650.445 935.41 651.287 935.109 652.143C934.812 652.979 934.45 653.884 934.173 654.685C931.979 661.458 930.646 668.4 930.195 675.398C929.773 682.37 930.093 689.358 931.153 696.285C931.157 696.316 931.174 696.345 931.201 696.367C931.228 696.389 931.264 696.403 931.302 696.407C931.326 696.409 931.35 696.408 931.373 696.402C931.396 696.396 931.418 696.386 931.436 696.373C931.454 696.36 931.469 696.343 931.478 696.325C931.488 696.307 931.493 696.287 931.493 696.268L933.62 675.554C934.221 668.694 935.286 661.866 936.811 655.102C937.045 654.284 937.343 653.466 937.598 652.631C937.831 651.803 938.13 650.989 938.492 650.194L939.513 647.792L940.832 645.529C942.839 642.521 945.152 639.656 947.745 636.965C952.886 631.469 958.977 626.614 965.826 622.553C965.864 622.549 965.9 622.535 965.927 622.513C965.954 622.491 965.971 622.462 965.975 622.431Z" fill="#263238"/>
<path d="M952.021 649.062C948.275 651.299 945.264 654.259 943.257 657.678C941.161 661.038 939.521 664.575 938.364 668.226C938.024 669.132 937.747 670.054 937.492 670.959L936.705 673.727C936.284 675.574 936 677.439 935.854 679.314C935.854 681.194 935.854 683.074 935.854 684.954C936.024 686.834 936.323 688.705 936.747 690.558C936.758 690.585 936.778 690.609 936.804 690.627C936.83 690.646 936.862 690.658 936.896 690.663C936.918 690.668 936.942 690.669 936.965 690.667C936.988 690.664 937.01 690.658 937.03 690.648C937.05 690.639 937.067 690.626 937.081 690.61C937.094 690.595 937.104 690.577 937.109 690.558C937.633 688.738 938.037 686.896 938.321 685.041C938.683 683.213 939.023 681.403 939.279 679.593C939.534 677.782 939.917 675.972 940.087 674.162C940.257 672.352 940.555 670.524 941.023 668.749C941.807 665.165 943.07 661.663 944.788 658.305C946.337 654.876 948.86 651.798 952.148 649.323C952.178 649.298 952.195 649.263 952.195 649.228C952.195 649.192 952.178 649.158 952.148 649.132C952.137 649.112 952.119 649.095 952.096 649.083C952.074 649.07 952.048 649.063 952.021 649.062Z" fill="#263238"/>
<path d="M911.625 669.828C910.689 660.62 908.817 651.517 907.072 642.413C905.328 633.31 903.371 624.224 901.329 615.155C899.287 606.087 897.075 597.071 894.649 588.072C894.645 588.053 894.635 588.035 894.621 588.02C894.608 588.005 894.591 587.992 894.571 587.982C894.551 587.972 894.529 587.966 894.506 587.963C894.483 587.961 894.459 587.962 894.437 587.967C894.437 587.967 894.288 588.054 894.288 588.124C896.224 597.192 897.968 606.296 899.606 615.399C901.244 624.503 902.882 633.606 904.286 642.727C905.69 651.847 906.732 661.003 908.136 670.124L912.242 697.521C912.247 697.555 912.267 697.586 912.298 697.608C912.33 697.631 912.37 697.643 912.412 697.643C912.436 697.645 912.46 697.643 912.483 697.638C912.507 697.632 912.528 697.622 912.546 697.609C912.564 697.595 912.579 697.579 912.589 697.561C912.598 697.543 912.603 697.523 912.603 697.504C912.731 695.189 912.731 692.891 912.795 690.541C912.858 688.191 912.688 685.929 912.646 683.579C912.539 679.018 912.05 674.423 911.625 669.828Z" fill="#263238"/>
<path d="M904.881 669.689C904.286 666.051 903.456 662.43 902.605 658.81L901.031 653.431C900.52 651.691 900.031 649.846 899.393 648.088C897.167 640.969 894.323 633.989 890.884 627.2L889.523 624.659L888.034 622.187C887.076 620.447 885.906 618.933 884.822 617.314C882.618 614.092 879.892 611.129 876.717 608.506C876.681 608.492 876.641 608.488 876.602 608.493C876.563 608.499 876.527 608.514 876.499 608.537C876.471 608.56 876.452 608.589 876.446 608.621C876.439 608.653 876.444 608.686 876.462 608.715C879.419 611.428 881.916 614.455 883.886 617.714C884.864 619.35 885.906 620.969 886.736 622.657L888.055 625.164L889.225 627.723C892.345 634.525 894.848 641.506 896.713 648.61C897.755 652.091 898.436 655.764 899.265 659.332L900.308 664.728C900.691 666.468 901.159 668.296 901.478 670.106C902.18 673.692 902.988 677.295 903.754 680.881C904.52 684.466 905.243 688.104 906.179 691.707C906.184 691.741 906.204 691.772 906.236 691.795C906.267 691.817 906.307 691.829 906.349 691.829C906.393 691.825 906.433 691.809 906.464 691.784C906.495 691.759 906.515 691.725 906.519 691.69C906.519 688 906.413 684.321 906.2 680.654C905.881 676.999 905.349 673.344 904.881 669.689Z" fill="#263238"/>
<path d="M895.586 670.176C893.458 665.355 891.076 660.62 888.459 655.99C885.803 651.369 882.813 646.882 879.504 642.553C879.504 642.553 879.334 642.466 879.27 642.553C879.238 642.581 879.221 642.618 879.221 642.657C879.221 642.696 879.238 642.733 879.27 642.761C882.155 647.273 884.705 651.923 886.906 656.686C889.183 661.386 891.161 666.155 892.969 671.012C894.777 675.868 895.99 680.794 897.564 685.667C899.138 690.541 900.563 695.45 902.393 700.376C902.405 700.405 902.428 700.43 902.458 700.449C902.489 700.467 902.525 700.478 902.563 700.48C902.606 700.476 902.647 700.46 902.678 700.435C902.709 700.41 902.728 700.376 902.733 700.341C902.823 695.199 902.239 690.063 900.989 685.023C899.676 679.964 897.869 674.999 895.586 670.176Z" fill="#263238"/>
<path d="M895.203 686.242C894.048 683.233 892.38 680.373 890.246 677.747C888.248 675.055 885.823 672.591 883.035 670.42C881.615 669.372 880.084 668.428 878.461 667.6C876.856 666.74 875.098 666.088 873.25 665.668C873.223 665.649 873.189 665.639 873.154 665.639C873.119 665.639 873.085 665.649 873.058 665.668C873.028 665.694 873.012 665.728 873.012 665.763C873.012 665.799 873.028 665.833 873.058 665.859C876.376 667.161 879.314 669.031 881.674 671.342C884.075 673.596 886.099 676.101 887.694 678.792C889.395 681.42 890.267 684.344 891.757 687.077C892.416 688.47 893.054 689.88 893.884 691.272C894.527 692.724 895.28 694.143 896.139 695.519C896.151 695.544 896.171 695.565 896.198 695.58C896.224 695.596 896.255 695.605 896.288 695.606C896.333 695.601 896.375 695.585 896.409 695.56C896.443 695.535 896.467 695.503 896.479 695.467C896.529 693.898 896.451 692.328 896.245 690.767C895.968 689.322 895.649 687.773 895.203 686.242Z" fill="#263238"/>
<path d="M895.968 601.248C890.346 599.971 885.26 597.458 881.262 593.981C877.264 590.504 874.507 586.196 873.292 581.527C869.038 565.287 882.737 572.249 870.463 546.715C858.189 521.18 861.018 515.384 865.251 508.056C869.484 500.728 871.867 503.026 875.653 512.686C879.44 522.346 893.139 537.437 898.33 565.653C903.52 593.868 895.968 601.248 895.968 601.248Z" fill="#96D959"/>
<path d="M932.28 573.799C932.28 573.799 919.985 570.317 919.517 551.362C919.049 532.407 928.494 536.289 929.898 512.703C931.302 489.118 933.216 472.495 938.407 472.112C943.597 471.729 957.317 483.705 962.04 510.005C966.762 536.306 955.892 553.695 946.447 561.423C937.003 569.151 932.28 573.799 932.28 573.799Z" fill="#96D959"/>
<path d="M889.268 624.05C889.268 624.05 886.439 610.125 880.759 603.563C875.079 597.001 862.805 591.187 854.786 578.429C846.766 565.67 837.768 559.491 838.236 577.663C838.704 595.835 848.638 605.112 860.933 611.291C873.229 617.47 889.268 624.05 889.268 624.05Z" fill="#96D959"/>
<path d="M884.078 648.018C876.574 636.703 867.188 626.293 856.19 617.088C839.661 603.946 826.409 597.384 831.152 603.946C835.896 610.508 841.554 610.143 849.574 621.735C857.594 633.327 855.254 641.839 866.592 648.418C877.93 654.998 884.078 648.018 884.078 648.018Z" fill="#96D959"/>
<path d="M882.652 670.837C882.184 669.671 881.716 661.177 865.634 654.214C849.552 647.252 834.449 649.95 836.342 653.431C838.236 656.912 848.148 662.709 858.061 666.19C867.974 669.671 882.652 670.837 882.652 670.837Z" fill="#96D959"/>
<path d="M931.323 624.92C931.323 624.92 924.239 617.575 928.026 602.101C931.812 586.627 940.3 590.508 949.745 582.38C959.19 574.251 957.318 573.102 966.762 564.608C976.207 556.114 984.716 551.449 988.503 554.93C992.289 558.412 986.609 569.238 980.93 575.435C975.25 581.631 966.294 584.712 962.04 592.441C957.786 600.169 959.679 612.545 948.809 618.341C937.939 624.137 931.323 624.92 931.323 624.92Z" fill="#96D959"/>
<path d="M954.956 629.08C954.956 629.08 971.974 613.223 984.248 601.631C996.522 590.038 1001.27 581.144 1001.73 588.872C1002.2 596.601 1005.99 602.797 996.054 612.84C986.12 622.884 954.956 629.08 954.956 629.08Z" fill="#96D959"/>
<path d="M945.979 654.598C945.979 654.598 945.49 648.418 972.421 634.111C999.351 619.803 1010.71 617.088 1007.86 622.901C1005.01 628.715 993.225 634.494 980.462 644.937C967.698 655.381 945.979 654.598 945.979 654.598Z" fill="#96D959"/>
<path d="M897.011 599.594C897.011 599.594 890.629 571.866 884.077 552.145C877.525 532.424 873.207 520.484 873.207 520.484" stroke="#263238" stroke-linecap="round" stroke-linejoin="round"/>
<path d="M931.174 574.077C931.174 574.077 942.661 544.017 946.447 525.845C950.234 507.673 945.979 494.148 944.086 486.037" stroke="#263238" stroke-linecap="round" stroke-linejoin="round"/>
<path d="M887.779 623.475C882.713 616.321 876.913 609.531 870.442 603.18C860.04 593.119 852.02 587.706 847.276 578.046" stroke="#263238" stroke-linecap="round" stroke-linejoin="round"/>
<path d="M931.323 624.92C931.323 624.92 935.109 606.348 944.086 596.688C953.063 587.027 971.017 571.954 978.122 562.276" stroke="#263238" stroke-linecap="round" stroke-linejoin="round"/>
<path d="M881.546 670.42C881.546 670.42 865.655 661.943 854.317 657.296" stroke="#263238" stroke-linecap="round" stroke-linejoin="round"/>
<path d="M933.812 752.402H900.968L884.545 685.145H950.213L933.812 752.402Z" fill="#263238" stroke="#263238" stroke-linecap="round" stroke-linejoin="round"/>
<g opacity="0.3">
<path d="M801.69 65.5069C823.459 65.5069 841.107 51.0665 841.107 33.2534C841.107 15.4404 823.459 1 801.69 1C779.92 1 762.272 15.4404 762.272 33.2534C762.272 51.0665 779.92 65.5069 801.69 65.5069Z" stroke="black" stroke-linecap="round" stroke-linejoin="round"/>
<path d="M821.494 45.0547L801.69 33.2534V21.5217" stroke="black" stroke-linecap="round" stroke-linejoin="round"/>
</g>
<g opacity="0.3">
<path d="M545.135 97.5C565.832 94.7359 579.872 78.7663 576.493 61.8311C573.115 44.8958 553.599 33.4078 532.902 36.1719C512.205 38.9361 498.165 54.9056 501.543 71.8409C504.922 88.7762 524.438 100.264 545.135 97.5Z" stroke="black" stroke-linecap="round" stroke-linejoin="round"/>
<path d="M563.548 53.6882H514.536V80.0061H563.548V53.6882Z" stroke="black" stroke-linecap="round" stroke-linejoin="round"/>
<path d="M514.536 53.6882L539.021 66.8472L563.526 53.6882" stroke="black" stroke-linecap="round" stroke-linejoin="round"/>
</g>
<g opacity="0.3">
<path d="M155.313 151.214C176.284 151.214 193.284 137.304 193.284 120.145C193.284 102.985 176.284 89.0747 155.313 89.0747C134.342 89.0747 117.342 102.985 117.342 120.145C117.342 137.304 134.342 151.214 155.313 151.214Z" stroke="black" stroke-linecap="round" stroke-linejoin="round"/>
<path d="M174.309 121.258L145.23 107.525V134.992L174.309 121.258Z" stroke="black" stroke-linecap="round" stroke-linejoin="round"/>
</g>
<g opacity="0.3">
<path d="M363.5 565.659C374.586 544.143 362.257 519.347 335.961 510.276C309.666 501.205 279.363 511.294 268.277 532.81C257.191 554.326 269.52 579.122 295.816 588.193C322.111 597.264 352.414 587.176 363.5 565.659Z" stroke="black" stroke-linecap="round" stroke-linejoin="round"/>
<path d="M316.258 563.947C326.221 563.947 334.297 557.338 334.297 549.186C334.297 541.035 326.221 534.426 316.258 534.426C306.296 534.426 298.22 541.035 298.22 549.186C298.22 557.338 306.296 563.947 316.258 563.947Z" stroke="black" stroke-linecap="round" stroke-linejoin="round"/>
<path d="M360.143 555.975V543.007H349.507C348.662 540.033 347.224 537.193 345.252 534.6L352.847 528.369L341.657 519.213L334.382 525.41C331.269 523.805 327.856 522.629 324.278 521.929V512.93H308.451V521.929C304.954 522.613 301.61 523.74 298.539 525.271L290.455 518.743L279.266 527.899L287.201 534.409C285.33 536.867 283.944 539.552 283.095 542.363H271.629V555.296H282.904C283.687 558.125 285 560.837 286.796 563.338L278.734 569.935L289.923 579.09L297.773 572.667C300.8 574.25 304.118 575.425 307.601 576.149V585.304H323.427V576.462C327.02 575.837 330.463 574.731 333.616 573.189L341.317 579.49L352.506 570.335L345.018 564.295C347.022 561.735 348.502 558.925 349.4 555.975H360.143Z" stroke="black" stroke-linecap="round" stroke-linejoin="round"/>
</g>
<g opacity="0.3">
<path d="M987.464 301.684C1007.64 285.173 1007.64 258.403 987.464 241.892C967.285 225.381 934.57 225.381 914.391 241.892C894.213 258.403 894.213 285.173 914.391 301.684C934.57 318.195 967.285 318.195 987.464 301.684Z" stroke="black" stroke-linecap="round" stroke-linejoin="round"/>
<path d="M971.57 250.934H926.494C923.921 250.934 921.454 251.77 919.635 253.258C917.816 254.747 916.794 256.766 916.794 258.871V279.149C916.794 281.254 917.816 283.273 919.635 284.761C921.454 286.25 923.921 287.086 926.494 287.086H957.658L955.212 301.742L970.294 287.086H971.527C974.096 287.081 976.558 286.243 978.373 284.755C980.187 283.267 981.206 281.251 981.206 279.149V258.871C981.206 256.775 980.193 254.764 978.388 253.277C976.582 251.79 974.131 250.947 971.57 250.934Z" stroke="black" stroke-linecap="round" stroke-linejoin="round"/>
<path d="M930.238 263.414H969.634" stroke="black" stroke-linecap="round" stroke-linejoin="round"/>
<path d="M930.238 273.44H969.634" stroke="black" stroke-linecap="round" stroke-linejoin="round"/>
</g>
<path d="M780.673 290.585V235.773H774.717V165.574C774.72 159.885 773.351 154.252 770.689 148.996C768.027 143.741 764.124 138.966 759.204 134.947C754.284 130.927 748.443 127.742 742.016 125.572C735.589 123.402 728.702 122.291 721.749 122.303H437.723C423.697 122.303 410.246 126.862 400.329 134.977C390.412 143.092 384.84 154.098 384.84 165.574V718.095C384.84 729.571 390.412 740.577 400.329 748.692C410.246 756.807 423.697 761.366 437.723 761.366H721.749C728.702 761.378 735.589 760.267 742.016 758.097C748.443 755.927 754.284 752.742 759.204 748.722C764.124 744.703 768.027 739.928 770.689 734.673C773.351 729.417 774.72 723.784 774.717 718.095V337.32H780.78V304.927H774.717V290.585H780.673Z" fill="#707070" stroke="#263238" stroke-linejoin="round"/>
<path d="M712.474 755.466H446.997C432.137 755.466 417.885 750.635 407.378 742.037C396.87 733.439 390.966 721.778 390.966 709.618V174.103C390.966 148.795 406.835 128.273 446.997 128.273H712.474C749.297 127.855 768.505 148.795 768.505 174.103V709.566C768.514 715.591 767.071 721.558 764.259 727.127C761.447 732.696 757.321 737.756 752.117 742.019C746.913 746.282 740.733 749.663 733.931 751.971C727.129 754.278 719.838 755.466 712.474 755.466Z" fill="#263238" stroke="#263238" stroke-linejoin="round"/>
<path d="M600.285 135.323L600.179 135.636C597.073 145.105 589.925 151.301 582.012 151.301H577.46C569.546 151.301 562.399 145.157 559.293 135.636L559.187 135.323L448.401 134.992C442.265 134.974 436.185 135.946 430.51 137.854C424.834 139.763 419.675 142.568 415.327 146.111C410.98 149.654 407.529 153.865 405.174 158.501C402.819 163.137 401.605 168.108 401.603 173.129L401.454 703.909C401.454 728.66 425.108 748.712 454.315 748.712H705.114C734.3 748.712 757.976 728.66 757.976 703.909V169.317C757.976 160.611 753.782 152.257 746.304 146.066C738.825 139.875 728.664 136.346 718.026 136.245L600.285 135.323Z" fill="#96D959" stroke="#263238" stroke-linecap="round" stroke-linejoin="round"/>
<path d="M583.608 134.278C583.612 133.471 583.323 132.681 582.778 132.009C582.232 131.336 581.455 130.812 580.545 130.501C579.634 130.191 578.632 130.109 577.664 130.265C576.696 130.422 575.808 130.81 575.11 131.381C574.413 131.951 573.938 132.679 573.747 133.47C573.555 134.262 573.656 135.083 574.035 135.828C574.415 136.572 575.056 137.208 575.878 137.655C576.7 138.101 577.665 138.337 578.651 138.334C579.966 138.334 581.226 137.907 582.156 137.146C583.085 136.385 583.608 135.354 583.608 134.278Z" fill="#707070"/>
<path d="M458.825 285.206C471.489 285.206 481.756 276.805 481.756 266.442C481.756 256.08 471.489 247.679 458.825 247.679C446.16 247.679 435.893 256.08 435.893 266.442C435.893 276.805 446.16 285.206 458.825 285.206Z" fill="white" stroke="#263238" stroke-width="2" stroke-linecap="round" stroke-linejoin="round"/>
<path d="M541.808 285.206C554.472 285.206 564.739 276.805 564.739 266.442C564.739 256.08 554.472 247.679 541.808 247.679C529.143 247.679 518.876 256.08 518.876 266.442C518.876 276.805 529.143 285.206 541.808 285.206Z" fill="white"/>
<path d="M624.812 285.206C637.476 285.206 647.743 276.805 647.743 266.442C647.743 256.08 637.476 247.679 624.812 247.679C612.147 247.679 601.88 256.08 601.88 266.442C601.88 276.805 612.147 285.206 624.812 285.206Z" fill="white"/>
<path d="M495.668 213.354H670.951" stroke="#263238" stroke-linecap="round" stroke-linejoin="round"/>
<path d="M707.795 285.206C720.459 285.206 730.726 276.805 730.726 266.442C730.726 256.08 720.459 247.679 707.795 247.679C695.13 247.679 684.863 256.08 684.863 266.442C684.863 276.805 695.13 285.206 707.795 285.206Z" fill="white"/>
<path d="M462.376 369.894C474.887 368.285 483.436 358.682 481.47 348.445C479.504 338.207 467.768 331.213 455.257 332.821C442.746 334.43 434.197 344.033 436.163 354.27C438.129 364.507 449.865 371.502 462.376 369.894Z" fill="white"/>
<path d="M547.137 369.551C559.46 367.159 567.079 357.045 564.154 346.962C561.23 336.879 548.87 330.645 536.548 333.038C524.225 335.431 516.607 345.544 519.531 355.627C522.455 365.71 534.815 371.944 547.137 369.551Z" fill="white"/>
<path d="M628.5 369.833C641 368.167 649.483 358.525 647.448 348.297C645.412 338.069 633.628 331.127 621.128 332.793C608.628 334.459 600.145 344.101 602.181 354.329C604.217 364.557 616 371.498 628.5 369.833Z" fill="white"/>
<path d="M711.38 369.852C723.888 368.231 732.423 358.619 730.441 348.384C728.46 338.148 716.714 331.165 704.205 332.786C691.696 334.408 683.162 344.019 685.143 354.254C687.124 364.49 698.871 371.473 711.38 369.852Z" fill="white" stroke="#263238" stroke-width="2" stroke-linecap="round" stroke-linejoin="round"/>
<path d="M458.825 454.967C471.489 454.967 481.756 446.567 481.756 436.204C481.756 425.841 471.489 417.44 458.825 417.44C446.16 417.44 435.893 425.841 435.893 436.204C435.893 446.567 446.16 454.967 458.825 454.967Z" fill="white"/>
<path d="M541.808 454.967C554.472 454.967 564.739 446.567 564.739 436.204C564.739 425.841 554.472 417.44 541.808 417.44C529.143 417.44 518.876 425.841 518.876 436.204C518.876 446.567 529.143 454.967 541.808 454.967Z" fill="white"/>
<path d="M624.812 454.967C637.476 454.967 647.743 446.567 647.743 436.204C647.743 425.841 637.476 417.44 624.812 417.44C612.147 417.44 601.88 425.841 601.88 436.204C601.88 446.567 612.147 454.967 624.812 454.967Z" fill="white"/>
<path d="M707.795 454.967C720.459 454.967 730.726 446.567 730.726 436.204C730.726 425.841 720.459 417.44 707.795 417.44C695.13 417.44 684.863 425.841 684.863 436.204C684.863 446.567 695.13 454.967 707.795 454.967Z" fill="white"/>
<path d="M458.825 539.857C471.489 539.857 481.756 531.456 481.756 521.093C481.756 510.73 471.489 502.329 458.825 502.329C446.16 502.329 435.893 510.73 435.893 521.093C435.893 531.456 446.16 539.857 458.825 539.857Z" fill="white"/>
<path d="M541.808 539.857C554.472 539.857 564.739 531.456 564.739 521.093C564.739 510.73 554.472 502.329 541.808 502.329C529.143 502.329 518.876 510.73 518.876 521.093C518.876 531.456 529.143 539.857 541.808 539.857Z" fill="white"/>
<path d="M624.812 539.857C637.476 539.857 647.743 531.456 647.743 521.093C647.743 510.73 637.476 502.329 624.812 502.329C612.147 502.329 601.88 510.73 601.88 521.093C601.88 531.456 612.147 539.857 624.812 539.857Z" fill="white"/>
<path d="M707.795 539.857C720.459 539.857 730.726 531.456 730.726 521.093C730.726 510.73 720.459 502.329 707.795 502.329C695.13 502.329 684.863 510.73 684.863 521.093C684.863 531.456 695.13 539.857 707.795 539.857Z" fill="white" stroke="#263238" stroke-width="2" stroke-linecap="round" stroke-linejoin="round"/>
<path d="M458.825 631.413C471.489 631.413 481.756 623.012 481.756 612.649C481.756 602.286 471.489 593.885 458.825 593.885C446.16 593.885 435.893 602.286 435.893 612.649C435.893 623.012 446.16 631.413 458.825 631.413Z" fill="white"/>
<path d="M541.808 631.413C554.472 631.413 564.739 623.012 564.739 612.649C564.739 602.286 554.472 593.885 541.808 593.885C529.143 593.885 518.876 602.286 518.876 612.649C518.876 623.012 529.143 631.413 541.808 631.413Z" fill="white"/>
<path d="M624.812 631.413C637.476 631.413 647.743 623.012 647.743 612.649C647.743 602.286 637.476 593.885 624.812 593.885C612.147 593.885 601.88 602.286 601.88 612.649C601.88 623.012 612.147 631.413 624.812 631.413Z" fill="white"/>
<path d="M707.795 631.413C720.459 631.413 730.726 623.012 730.726 612.649C730.726 602.286 720.459 593.885 707.795 593.885C695.13 593.885 684.863 602.286 684.863 612.649C684.863 623.012 695.13 631.413 707.795 631.413Z" fill="white"/>
<path d="M708.348 710.419H454.996C450.501 710.396 446.2 708.919 443.031 706.31C439.863 703.701 438.084 700.172 438.084 696.494C438.084 692.816 439.863 689.287 443.031 686.678C446.2 684.069 450.501 682.592 454.996 682.569H708.348C712.843 682.592 717.144 684.069 720.312 686.678C723.481 689.287 725.259 692.816 725.259 696.494C725.259 700.172 723.481 703.701 720.312 706.31C717.144 708.919 712.843 710.396 708.348 710.419Z" fill="white"/>
<path d="M436.617 144.617C436.617 148.725 430.979 150.205 430.958 153.32V153.529H436.489V154.922H429.193V153.756C429.193 149.352 434.83 148.534 434.83 144.652C434.83 143.26 434.255 142.511 432.873 142.511C431.49 142.511 430.916 143.312 430.916 144.513V145.731H429.193V144.617C429.193 142.529 430.341 141.136 432.915 141.136C435.489 141.136 436.617 142.529 436.617 144.617Z" fill="#263238"/>
<path d="M445.742 144.6V144.948C445.817 145.531 445.661 146.118 445.297 146.622C444.933 147.127 444.381 147.522 443.721 147.75C444.385 147.979 444.94 148.378 445.304 148.886C445.668 149.394 445.822 149.985 445.742 150.57V151.632C445.742 153.703 444.551 155.113 441.977 155.113C439.403 155.113 438.233 153.738 438.233 151.632V150.692H439.978V151.719C439.978 152.955 440.594 153.686 441.935 153.686C443.275 153.686 443.87 152.972 443.87 151.58V150.535C443.87 149.195 443.19 148.551 441.743 148.516H440.743V147.141H441.828C442.117 147.147 442.403 147.1 442.668 147.005C442.932 146.91 443.168 146.769 443.358 146.591C443.549 146.414 443.69 146.204 443.771 145.978C443.852 145.751 443.871 145.512 443.828 145.279V144.652C443.828 143.26 443.232 142.529 441.892 142.529C440.552 142.529 439.935 143.295 439.935 144.513V145.227H438.191V144.6C438.191 142.511 439.382 141.119 441.935 141.119C444.487 141.119 445.742 142.511 445.742 144.6Z" fill="#263238"/>
<path d="M449.252 145.627V147.524H447.465V145.627H449.252ZM449.252 153.042V154.957H447.465V153.042H449.252Z" fill="#263238"/>
<path d="M453.081 146.863C453.324 146.502 453.687 146.204 454.127 146.004C454.567 145.804 455.067 145.71 455.57 145.731C457.697 145.731 458.655 147.002 458.655 148.952V151.632C458.655 153.703 457.442 155.113 454.911 155.113C452.379 155.113 451.167 153.738 451.167 151.632V150.71H452.911V151.719C452.911 152.955 453.528 153.686 454.847 153.686C456.166 153.686 456.804 152.955 456.804 151.719V149.073C456.804 147.855 456.187 147.106 454.847 147.106C454.605 147.097 454.364 147.128 454.137 147.197C453.91 147.266 453.703 147.373 453.528 147.509C453.353 147.646 453.214 147.81 453.119 147.992C453.023 148.175 452.975 148.371 452.975 148.569V148.882H451.231L451.699 141.31H458.25V142.668H453.358L453.081 146.863Z" fill="#263238"/>
<path d="M467.929 144.513V144.757H466.27V144.513C466.27 143.295 465.653 142.563 464.292 142.563C462.93 142.563 462.271 143.312 462.271 144.774V147.82C462.467 147.373 462.833 146.99 463.316 146.726C463.798 146.463 464.372 146.334 464.951 146.358C467.078 146.358 468.057 147.629 468.057 149.596V151.667C468.057 153.738 466.802 155.148 464.249 155.148C461.697 155.148 460.42 153.773 460.42 151.667V144.704C460.42 142.546 461.611 141.223 464.249 141.223C466.887 141.223 467.929 142.494 467.929 144.513ZM462.186 149.613V151.649C462.186 152.885 462.803 153.616 464.164 153.616C465.525 153.616 466.142 152.885 466.142 151.649V149.735C466.142 148.499 465.504 147.768 464.164 147.768C462.824 147.768 462.186 148.447 462.186 149.735V149.613Z" fill="#263238"/>
<path d="M649.807 145.174H645.105V154.8H649.807V145.174Z" fill="#263238"/>
<path d="M656.082 143.242H651.381V154.8H656.082V143.242Z" fill="#263238"/>
<path d="M662.357 141.885H657.656V154.8H662.357V141.885Z" fill="#263238"/>
<path d="M668.611 139.5H663.91V154.8H668.611V139.5Z" fill="#263238"/>
<path d="M726.833 154.539H698.605V140.423H726.833V154.539ZM700.264 153.216H725.344V141.676H700.264V153.216Z" fill="#263238"/>
<path d="M717.431 143.103H702.54V151.858H717.431V143.103Z" fill="#263238"/>
<path d="M729.407 145.818H725.855V149.143H729.407V145.818Z" fill="#263238"/>
<path d="M688.267 151.475C688.072 151.479 687.88 151.436 687.714 151.354C681.97 148.569 678.184 151.162 678.035 151.354C677.821 151.473 677.562 151.524 677.306 151.498C677.05 151.473 676.814 151.371 676.642 151.214C676.47 151.056 676.374 150.853 676.372 150.641C676.37 150.43 676.462 150.225 676.631 150.065C676.844 149.909 681.694 146.584 688.798 149.961C688.918 150.018 689.023 150.095 689.107 150.186C689.19 150.277 689.25 150.38 689.284 150.491C689.318 150.601 689.324 150.716 689.303 150.828C689.281 150.94 689.233 151.048 689.16 151.145C689.058 151.258 688.923 151.348 688.766 151.406C688.61 151.464 688.438 151.488 688.267 151.475Z" fill="#263238"/>
<path d="M690.394 148.569C690.199 148.572 690.007 148.53 689.841 148.447C681.545 144.409 675.971 148.307 675.908 148.342C675.811 148.423 675.695 148.488 675.567 148.532C675.439 148.576 675.302 148.598 675.163 148.598C675.024 148.598 674.887 148.576 674.759 148.532C674.631 148.488 674.516 148.423 674.419 148.342C674.224 148.18 674.115 147.961 674.115 147.733C674.115 147.505 674.224 147.287 674.419 147.124C674.419 147.124 681.226 142.355 690.841 147.124C691.031 147.224 691.177 147.371 691.258 147.544C691.339 147.716 691.351 147.905 691.291 148.084C691.232 148.262 691.105 148.421 690.928 148.536C690.752 148.651 690.535 148.718 690.309 148.725L690.394 148.569Z" fill="#263238"/>
<path d="M692.308 145.209C692.121 145.21 691.936 145.168 691.777 145.087C681.268 139.97 674.27 144.791 673.972 145.087C673.773 145.247 673.506 145.336 673.227 145.336C672.949 145.336 672.682 145.247 672.483 145.087C672.39 145.002 672.32 144.903 672.275 144.795C672.23 144.687 672.212 144.573 672.222 144.46C672.232 144.346 672.269 144.235 672.333 144.134C672.396 144.033 672.483 143.942 672.589 143.869C672.589 143.869 680.97 138.003 692.861 143.869C693.099 143.988 693.271 144.179 693.338 144.4C693.406 144.622 693.365 144.856 693.223 145.053C693.095 145.133 692.946 145.189 692.787 145.216C692.629 145.243 692.466 145.241 692.308 145.209Z" fill="#263238"/>
<path d="M685.097 152.903C685.101 153.334 684.949 153.756 684.659 154.116C684.37 154.476 683.956 154.758 683.471 154.925C682.985 155.093 682.45 155.138 681.933 155.056C681.415 154.974 680.94 154.768 680.566 154.465C680.192 154.161 679.936 153.774 679.832 153.351C679.728 152.928 679.779 152.49 679.98 152.092C680.18 151.693 680.521 151.352 680.959 151.112C681.396 150.872 681.911 150.744 682.438 150.744C683.14 150.744 683.813 150.971 684.311 151.375C684.809 151.78 685.092 152.329 685.097 152.903Z" fill="#263238"/>
<path d="M120.448 734.718C118.431 737.425 116.155 739.998 113.641 742.411C111.046 744.535 103.26 749.026 100.346 751.114C97.4313 753.203 97.7717 754.822 99.048 756.423C100.324 758.024 151.548 756.423 151.548 756.423C151.548 756.423 153.484 757.485 153.484 751.114C153.576 747.523 152.574 743.97 150.569 740.775C150.569 740.775 124 734.457 120.448 734.718Z" fill="white" stroke="#263238" stroke-linecap="round" stroke-linejoin="round"/>
<path d="M98.2609 753.812C98.1121 754.754 98.4258 755.705 99.1331 756.458C100.431 758.042 151.633 756.458 151.633 756.458C151.633 756.458 152.952 757.172 153.42 753.812H98.2609Z" fill="white" stroke="#263238" stroke-linecap="round" stroke-linejoin="round"/>
<path d="M220.81 734.718C222.894 737.432 225.241 740.005 227.83 742.411C230.51 744.535 238.466 749.025 241.55 751.114C244.635 753.203 244.209 754.822 242.891 756.423C241.572 758.024 188.71 756.423 188.71 756.423C188.71 756.423 186.583 757.485 186.583 751.114C186.539 747.516 187.623 743.968 189.731 740.81C189.731 740.81 217.13 734.457 220.81 734.718Z" fill="white" stroke="#263238" stroke-linecap="round" stroke-linejoin="round"/>
<path d="M243.784 753.812C243.862 754.28 243.823 754.755 243.669 755.21C243.516 755.665 243.251 756.089 242.891 756.458C241.55 758.042 188.71 756.458 188.71 756.458C188.71 756.458 187.328 757.172 186.86 753.812H243.784Z" fill="white" stroke="#263238" stroke-linecap="round" stroke-linejoin="round"/>
<path d="M114.173 526.176C114.173 526.176 118.427 668.905 119.15 676.407C119.874 683.909 123.022 705.301 123.022 705.301C123.022 705.301 122.065 713.778 121.405 716.424C120.746 719.07 123.788 726.763 123.788 726.763C122.737 728.189 121.867 729.7 121.192 731.271C120.873 732.594 120.554 734.752 120.554 734.752C126.486 735.749 132.328 737.075 138.04 738.721C142.04 740.101 146.334 740.823 150.676 740.845C150.676 740.845 151.973 733.882 153.59 729.182C155.207 724.483 157.142 718.321 156.823 713.291C156.504 708.26 152.931 699.227 153.271 696.581C153.611 693.935 157.802 687.565 157.802 683.056C157.802 678.548 157.142 668.749 157.142 668.749L173.884 558.272L185.328 707.181C185.328 707.181 179.819 723.351 183.073 726.015C184.986 727.627 186.79 729.324 188.476 731.097C187.75 733.004 187.202 734.953 186.838 736.928C186.838 738.251 187.179 739.052 187.179 740.113C187.215 741 187.322 741.884 187.498 742.759C187.498 742.759 195.603 740.113 202.729 738.251C208.664 736.962 214.743 736.163 220.874 735.866C220.874 735.866 221.193 728.173 221.193 725.266C221.193 722.359 224.107 717.573 223.448 714.666C222.788 711.759 220.215 706.45 219.576 704.327C219.071 701.784 218.85 699.209 218.917 696.633C218.917 695.571 224.958 541.371 224.958 541.371C224.958 541.371 221.64 520.606 221.64 519.805C221.64 519.004 218.066 510.266 218.066 510.266L114.407 521.389L114.173 526.176Z" fill="#263238" stroke="#263238" stroke-linecap="round" stroke-linejoin="round"/>
<path d="M152.186 719.348C152.186 719.348 117.512 723.578 126.915 725.701C136.317 727.825 147.336 728.086 146.677 726.241C146.017 724.396 141.486 724.379 141.486 724.379" stroke="#A1A1A1" stroke-linecap="round" stroke-linejoin="round"/>
<path d="M216.981 719.087C216.981 719.087 191.71 731.271 195.922 730.749C200.133 730.227 211.152 728.364 213.088 726.241" stroke="#A1A1A1" stroke-linecap="round" stroke-linejoin="round"/>
<path d="M147.868 379.06L130.042 389.12L145.911 521.667L205.515 514.775L185.115 376.658L147.868 379.06Z" fill="white" stroke="#263238" stroke-linecap="round" stroke-linejoin="round"/>
<path d="M137.487 359.965L142.039 392.828C142.039 392.828 148.187 399.198 163.311 397.336C178.436 395.474 180.478 386.736 180.478 386.736L177.245 356.258C177.245 356.258 173.671 359.443 162.014 361.828C150.356 364.212 137.487 359.965 137.487 359.965Z" fill="white" stroke="#263238" stroke-linecap="round" stroke-linejoin="round"/>
<path d="M130.701 303.5C130.701 303.5 121.618 308.548 118.703 314.901C115.789 321.254 117.406 323.604 118.384 327.085C119.363 330.566 125.191 339.269 125.191 339.269C125.191 339.269 131.02 353.856 132.956 357.302C134.892 360.748 148.825 368.424 153.696 371.088C153.696 371.088 160.503 372.149 163.418 371.349C166.332 370.548 173.139 367.363 175.075 362.855C177.011 358.346 179.925 354.152 180.265 349.609C180.606 345.066 179.925 331.315 179.925 331.315C179.925 331.315 187.051 319.131 184.179 313.822C181.308 308.513 176.096 299.775 160.206 297.651C144.315 295.528 133.615 299.531 130.701 303.5Z" fill="white" stroke="#263238" stroke-linecap="round" stroke-linejoin="round"/>
<path d="M184.137 313.839C181.222 308.617 176.053 299.792 160.163 297.669C144.273 295.545 133.615 299.531 130.701 303.5C130.701 303.5 121.618 308.548 118.703 314.901C115.789 321.254 117.406 323.604 118.384 327.085C119.363 330.566 125.191 339.269 125.191 339.269L126.425 342.35L126.808 342.194C126.808 342.194 124.532 329.191 125.191 326.528C125.851 323.865 131.573 320.436 132.956 317.825C133.584 316.61 134.123 315.367 134.573 314.1C134.573 314.1 142.039 323.378 155.313 323.378C168.587 323.378 174.756 322.855 174.756 322.855L177.989 328.077L179.925 331.245C179.925 331.245 187.051 319.148 184.137 313.839Z" fill="#263238" stroke="#263238" stroke-linecap="round" stroke-linejoin="round"/>
<path d="M157.908 333.195L161.801 349.104L154.015 350.427" stroke="#263238" stroke-linecap="round" stroke-linejoin="round"/>
<path d="M149.484 354.395C149.484 354.395 159.525 358.381 166.332 351.75" stroke="#263238" stroke-linecap="round" stroke-linejoin="round"/>
<path d="M143.571 336.171C144.102 337.72 143.571 339.182 142.507 339.443C141.443 339.705 140.061 338.66 139.529 337.111C138.997 335.562 139.529 334.082 140.593 333.839C141.656 333.595 143.039 334.622 143.571 336.171Z" fill="#263238"/>
<path d="M168.311 336.787C169.431 336.529 169.906 335.06 169.372 333.505C168.837 331.951 167.497 330.899 166.377 331.157C165.257 331.414 164.783 332.883 165.317 334.438C165.851 335.993 167.192 337.044 168.311 336.787Z" fill="#263238"/>
<path d="M133.275 332.394C135.097 331.243 137.191 330.414 139.424 329.959C141.658 329.503 143.982 329.432 146.251 329.748" stroke="#263238" stroke-linecap="round" stroke-linejoin="round"/>
<path d="M160.823 329.017C160.823 329.017 169.565 326.11 173.458 328.234" stroke="#263238" stroke-linecap="round" stroke-linejoin="round"/>
<path d="M126.425 342.368C126.425 342.368 121.299 339.287 120.661 343.795C120.022 348.303 122.277 350.427 125.192 351.21C128.106 351.993 131.02 353.072 131.02 353.072L126.425 342.368Z" stroke="#263238" stroke-linecap="round" stroke-linejoin="round"/>
<path d="M180.584 336.101C180.584 336.101 185.115 331.593 185.775 336.902C186.434 342.211 180.904 347.502 180.904 347.502L180.584 336.101Z" stroke="#263238" stroke-linecap="round" stroke-linejoin="round"/>
<path d="M74.6488 440.277C74.6488 440.277 71.7345 426.77 69.7988 422C67.863 417.231 60.3964 414.829 57.4822 412.723C54.5679 410.617 53.5893 405.029 50.356 405.761C47.1226 406.492 48.0798 409.99 49.3774 412.375C50.5919 414.331 52.0156 416.195 53.6319 417.945C53.6319 417.945 46.5057 414.759 41.9747 413.176C38.7074 412.033 35.656 410.515 32.9128 408.667C31.2748 407.606 32.2533 414.237 33.5509 418.206C34.8485 422.174 38.0819 429.085 44.889 431.991C51.6961 434.898 56.8653 437.039 56.8653 437.039L61.4175 444.715L74.6488 440.277Z" fill="white" stroke="#263238" stroke-linecap="round" stroke-linejoin="round"/>
<path d="M62.0982 431.8C62.0982 431.8 59.503 425.168 55.2911 423.584C51.0792 422 49.7816 423.584 47.2077 420.66C44.6338 417.736 42.3364 411.122 39.7411 408.215C37.1459 405.308 35.8696 408.998 36.8269 412.444C37.7841 415.891 41.3578 425.447 42.0173 427.553C42.6767 429.659 47.8459 431.539 50.122 432.862" fill="white"/>
<path d="M62.0982 431.8C62.0982 431.8 59.503 425.168 55.2911 423.584C51.0792 422 49.7816 423.584 47.2077 420.66C44.6338 417.736 42.3364 411.122 39.7411 408.215C37.1459 405.308 35.8696 408.998 36.8269 412.444C37.7841 415.891 41.3578 425.447 42.0173 427.553C42.6767 429.659 47.8459 431.539 50.122 432.862" stroke="#263238" stroke-linecap="round" stroke-linejoin="round"/>
<path d="M137.168 372.689C139.528 375.585 141.463 378.699 142.933 381.966C144.589 385.185 145.684 388.577 146.187 392.045C146.67 393.602 146.778 395.222 146.506 396.814C146 399.532 145.779 402.281 145.847 405.029C146.251 407.675 155.696 531.728 155.696 534.409C155.696 537.089 156.674 543.408 155.377 543.947C154.079 544.487 158.951 546.071 137.551 542.885C125.594 541.248 113.933 538.4 102.834 534.409V493.557C102.834 493.557 97.325 497.038 86.9654 494.357C71.5856 490.424 68.8202 478.988 62.9917 465.202C57.1631 451.417 53.5894 444.785 53.5894 444.785L74.6488 436.082L82.7535 447.378C82.7535 447.378 91.4964 418.745 91.4964 414.759C91.4964 410.773 90.1988 404.96 90.837 403.637C91.4751 402.314 131.254 382.75 131.254 382.75C131.254 382.75 134.254 372.167 137.168 372.689Z" fill="#96D959" stroke="#263238" stroke-linecap="round" stroke-linejoin="round"/>
<path d="M105.6 433.454C104.94 427.692 104.451 423.845 104.451 423.845" stroke="#263238" stroke-linecap="round" stroke-linejoin="round"/>
<path d="M102.834 493.557C102.834 493.557 109.322 494.357 109.642 481.111C109.833 472.756 107.727 452.2 106.132 438.136" stroke="#263238" stroke-linecap="round" stroke-linejoin="round"/>
<path d="M99.9626 461.982L103.153 464.663" stroke="#263238" stroke-linecap="round" stroke-linejoin="round"/>
<path d="M82.7535 447.448L97.4101 459.824" stroke="#263238" stroke-linecap="round" stroke-linejoin="round"/>
<path d="M91.8154 455.385L103.154 459.632" stroke="#263238" stroke-linecap="round" stroke-linejoin="round"/>
<path d="M111.577 512.651L112.556 519.004L140.082 507.342L139.125 499.666L111.577 512.651Z" fill="#96D959" stroke="#263238" stroke-linecap="round" stroke-linejoin="round"/>
<path d="M294.944 423.01L302.708 417.179C302.708 417.179 308.218 408.963 310.175 405.795C312.132 402.627 316.961 405.256 320.534 403.672C324.108 402.088 329.596 398.102 330.575 399.964C330.948 400.713 330.99 401.545 330.695 402.317C330.4 403.089 329.786 403.752 328.958 404.194C327.186 405.085 325.346 405.881 323.449 406.579C327.047 405.846 330.597 404.963 334.085 403.933C336.042 403.132 346.082 397.841 346.082 401.287C346.082 404.734 339.594 411.626 335.446 415.073C331.298 418.519 324.81 423.288 317.641 425.133C310.473 426.978 308.898 427.518 308.898 427.518L302.091 433.628L294.944 423.01Z" fill="white" stroke="#263238" stroke-linecap="round" stroke-linejoin="round"/>
<path d="M307.239 423.845C307.239 423.845 310.813 415.63 314.365 414.568C317.918 413.506 327.979 413.245 327.979 413.245C327.979 413.245 334.127 405.029 338.02 402.384C341.913 399.738 341.913 403.445 340.296 406.352C338.058 409.946 335.34 413.326 332.191 416.43C330.778 417.743 329.264 418.981 327.66 420.138" fill="white"/>
<path d="M307.239 423.845C307.239 423.845 310.813 415.63 314.365 414.568C317.918 413.506 327.979 413.245 327.979 413.245C327.979 413.245 334.127 405.029 338.02 402.384C341.913 399.738 341.913 403.445 340.296 406.352C338.058 409.946 335.34 413.326 332.191 416.43C330.778 417.743 329.264 418.981 327.66 420.138" stroke="#263238" stroke-linecap="round" stroke-linejoin="round"/>
<path d="M323.448 406.613C323.448 406.613 317.939 406.892 316.322 408.215" stroke="#263238" stroke-linecap="round" stroke-linejoin="round"/>
<path d="M178.649 373.211C178.649 373.211 187.391 430.477 187.391 441.095C187.391 451.713 192.901 542.363 192.901 542.363C202.259 543.279 211.747 542.181 220.427 539.178C235.658 534.13 237.913 530.162 238.253 528.038C238.594 525.915 231.872 473.174 231.872 473.174C231.872 473.174 237.381 475.82 248.719 472.635C260.057 469.449 307.345 440.294 307.345 440.294L295.05 423.062L253.91 437.387C253.91 437.387 242.231 412.201 237.062 403.985C231.893 395.769 233.169 392.584 229.936 389.938C226.702 387.293 191.369 381.235 191.369 381.235C191.369 381.235 185.222 371.175 183.286 369.051C181.35 366.928 178.308 367.311 178.649 373.211Z" fill="#96D959" stroke="#263238" stroke-linecap="round" stroke-linejoin="round"/>
<path d="M225.809 429.92L224.639 421.461" stroke="#263238" stroke-linecap="round" stroke-linejoin="round"/>
<path d="M231.765 473.157L226.681 436.326" stroke="#263238" stroke-linecap="round" stroke-linejoin="round"/>
<path d="M246.847 445.098C245.812 446.465 245.091 447.975 244.72 449.554" stroke="#263238" stroke-linecap="round" stroke-linejoin="round"/>
<path d="M253.803 437.37C251.976 439.068 250.271 440.852 248.698 442.714" stroke="#263238" stroke-linecap="round" stroke-linejoin="round"/>
<path d="M204.877 495.158L204.239 500.449L228.213 508.665L228.851 503.374L204.877 495.158Z" fill="#96D959" stroke="#263238" stroke-linecap="round" stroke-linejoin="round"/>
<path d="M386.988 115.532H291.689C285.282 115.532 279.136 113.452 274.602 109.748C270.067 106.044 267.514 101.019 267.502 95.776C267.502 90.5272 270.051 85.4933 274.587 81.7819C279.122 78.0704 285.274 75.9853 291.689 75.9853H386.988C393.403 75.9853 399.555 78.0704 404.091 81.7819C408.627 85.4933 411.175 90.5272 411.175 95.776C411.164 101.019 408.61 106.044 404.076 109.748C399.541 113.452 393.396 115.532 386.988 115.532Z" fill="white" stroke="#263238" stroke-linecap="round" stroke-linejoin="round"/>
<path d="M435.893 266.442L339.488 231.195V116.42" stroke="#263238" stroke-linecap="round" stroke-linejoin="round"/>
<path d="M290.668 95.7238H386.839" stroke="#263238" stroke-linecap="round" stroke-linejoin="round"/>
<path d="M832.279 394.081H927.579C930.757 394.081 933.904 393.568 936.839 392.573C939.775 391.577 942.443 390.118 944.689 388.278C946.935 386.439 948.716 384.255 949.93 381.852C951.144 379.449 951.768 376.873 951.765 374.273C951.765 369.024 949.217 363.99 944.681 360.279C940.145 356.567 933.993 354.482 927.579 354.482H832.279C825.865 354.482 819.713 356.567 815.177 360.279C810.641 363.99 808.093 369.024 808.093 374.273C808.09 376.873 808.714 379.449 809.928 381.852C811.142 384.255 812.923 386.439 815.169 388.278C817.416 390.118 820.083 391.577 823.019 392.573C825.954 393.568 829.101 394.081 832.279 394.081Z" fill="white" stroke="#263238" stroke-linecap="round" stroke-linejoin="round"/>
<path d="M730.726 521.093L879.759 483.339V394.969" stroke="#263238" stroke-linecap="round" stroke-linejoin="round"/>
<path d="M830.344 373.89H930.11" stroke="#263238" stroke-linecap="round" stroke-linejoin="round"/>
<path d="M832.258 192.223H927.558C940.915 192.223 951.744 183.362 951.744 172.432C951.744 161.502 940.915 152.642 927.558 152.642H832.258C818.9 152.642 808.072 161.502 808.072 172.432C808.072 183.362 818.9 192.223 832.258 192.223Z" fill="white" stroke="#263238" stroke-linecap="round" stroke-linejoin="round"/>
<path d="M730.726 345.623L879.759 307.869V193.093" stroke="#263238" stroke-linecap="round" stroke-linejoin="round"/>
<path d="M830.344 172.032H930.11" stroke="#263238" stroke-linecap="round" stroke-linejoin="round"/>
<path d="M280.968 193.563H87.1782C80.5528 193.568 74.2008 195.725 69.5179 199.56C64.8351 203.395 62.2046 208.594 62.2046 214.015V244.128C62.199 246.815 62.8407 249.477 64.093 251.961C65.3453 254.445 67.1836 256.703 69.5029 258.606C71.8222 260.509 74.5769 262.019 77.6098 263.05C80.6426 264.081 83.894 264.612 87.1782 264.615H191.178L182.159 295.946L212.344 264.615H280.968C287.597 264.615 293.954 262.46 298.642 258.624C303.329 254.789 305.963 249.587 305.963 244.163V214.05C305.968 211.361 305.326 208.698 304.072 206.213C302.819 203.727 300.979 201.469 298.657 199.566C296.335 197.663 293.578 196.153 290.543 195.123C287.508 194.093 284.254 193.563 280.968 193.563Z" fill="#263238"/>
<path d="M79.116 240.89V214.538H82.1792L91.3262 232.048V214.538H95.0701V240.89H92.3047L83.0301 222.84V240.838L79.116 240.89Z" fill="#96D959"/>
<path d="M106.217 241.151C104.724 241.243 103.234 240.945 101.962 240.299C100.911 239.682 100.158 238.782 99.8351 237.757C99.3994 236.412 99.1988 235.023 99.2395 233.632V229.333C99.207 227.93 99.4074 226.531 99.8351 225.173C100.165 224.16 100.917 223.273 101.962 222.666C103.194 222.049 104.626 221.752 106.068 221.813C107.585 221.718 109.094 222.07 110.322 222.805C111.303 223.54 111.942 224.531 112.13 225.608C112.452 227.066 112.602 228.547 112.577 230.029V231.543H103.685V235.32C103.666 235.942 103.752 236.563 103.941 237.165C104.06 237.587 104.353 237.962 104.77 238.227C105.208 238.471 105.73 238.593 106.259 238.575C106.519 238.593 106.781 238.568 107.029 238.502C107.278 238.436 107.508 238.331 107.706 238.192C108.075 237.906 108.315 237.525 108.387 237.113C108.524 236.575 108.588 236.027 108.578 235.477V234.346H112.705V235.024C112.812 236.6 112.297 238.162 111.237 239.48C110.627 240.07 109.852 240.529 108.978 240.82C108.103 241.111 107.156 241.225 106.217 241.151ZM103.685 229.663H108.578V227.923C108.586 227.265 108.529 226.607 108.408 225.956C108.357 225.507 108.125 225.084 107.748 224.755C107.533 224.603 107.283 224.487 107.013 224.416C106.743 224.344 106.457 224.317 106.174 224.337C105.896 224.317 105.616 224.342 105.349 224.411C105.083 224.48 104.835 224.591 104.621 224.738C104.201 225.092 103.938 225.552 103.877 226.043C103.731 226.89 103.667 227.746 103.685 228.602V229.663Z" fill="#96D959"/>
<path d="M119.278 240.89L115.577 222.074H119.065L121.448 235.999L124.532 222.074H127.787L130.85 235.877L133.232 222.074H136.742L132.913 240.89H129.34L126.191 227.609L123.086 240.89H119.278Z" fill="#96D959"/>
<path d="M150.463 240.89V224.581H147.719V222.005H150.463V221.1C150.441 220.089 150.555 219.079 150.803 218.088C150.973 217.327 151.471 216.641 152.207 216.156C153.166 215.648 154.301 215.41 155.441 215.478C155.908 215.458 156.377 215.458 156.845 215.478C157.31 215.508 157.772 215.566 158.227 215.652V218.193L157.419 218.071H156.632C155.802 218.071 155.27 218.297 155.058 218.75C154.805 219.306 154.69 219.898 154.717 220.49V222.04H158.227V224.581H154.717V240.821L150.463 240.89Z" fill="#96D959"/>
<path d="M163.822 241.151C163.049 241.192 162.286 240.986 161.695 240.577C161.189 240.178 160.828 239.672 160.652 239.115C160.454 238.549 160.353 237.963 160.355 237.374V222.127H164.609V236.33C164.574 236.872 164.691 237.414 164.949 237.914C165.109 238.111 165.334 238.268 165.597 238.366C165.86 238.464 166.151 238.501 166.438 238.471C166.961 238.463 167.472 238.35 167.927 238.14C168.459 237.906 168.958 237.626 169.416 237.305V222.127H173.671V240.943H169.416V239.097C168.654 239.683 167.804 240.186 166.885 240.594C165.937 240.986 164.884 241.177 163.822 241.151Z" fill="#96D959"/>
<path d="M178.032 240.89V222.074H182.286V223.937C183.054 223.35 183.912 222.846 184.839 222.44C185.776 222.017 186.832 221.801 187.902 221.813C188.678 221.778 189.441 221.99 190.029 222.405C190.522 222.81 190.874 223.314 191.05 223.867C191.249 224.433 191.349 225.019 191.348 225.608V240.838H187.094V226.67C187.13 226.133 187.013 225.597 186.753 225.103C186.591 224.909 186.365 224.756 186.102 224.661C185.839 224.565 185.549 224.532 185.264 224.563C184.742 224.571 184.23 224.685 183.775 224.894C183.244 225.129 182.745 225.409 182.286 225.73V240.89H178.032Z" fill="#96D959"/>
<path d="M201.771 241.151C200.268 241.237 198.772 240.912 197.517 240.229C196.52 239.569 195.836 238.646 195.581 237.618C195.219 236.322 195.048 234.996 195.071 233.667V229.333C195.049 227.974 195.227 226.618 195.603 225.295C195.863 224.274 196.556 223.361 197.56 222.718C198.823 222.052 200.314 221.735 201.814 221.813C203.162 221.752 204.506 221.986 205.707 222.492C206.618 222.937 207.294 223.645 207.6 224.476C207.972 225.54 208.144 226.643 208.111 227.749V228.845H204.26V227.714C204.273 227.06 204.202 226.406 204.048 225.764C203.971 225.36 203.723 224.99 203.346 224.72C202.908 224.478 202.384 224.361 201.857 224.389C201.29 224.361 200.73 224.503 200.282 224.79C199.853 225.139 199.589 225.602 199.538 226.095C199.402 226.932 199.345 227.775 199.368 228.619V234.555C199.257 235.648 199.446 236.748 199.921 237.775C200.127 238.047 200.42 238.267 200.769 238.411C201.118 238.556 201.509 238.618 201.899 238.593C202.182 238.613 202.468 238.586 202.738 238.514C203.008 238.443 203.258 238.327 203.473 238.175C203.843 237.864 204.069 237.458 204.111 237.026C204.212 236.45 204.262 235.868 204.26 235.286V233.754H208.111V235.059C208.139 236.16 207.96 237.258 207.579 238.314C207.265 239.17 206.585 239.905 205.664 240.386C204.485 240.945 203.132 241.211 201.771 241.151Z" fill="#96D959"/>
<path d="M217.981 241.151C216.974 241.192 215.973 241.006 215.088 240.612C214.368 240.24 213.809 239.692 213.493 239.045C213.151 238.282 212.985 237.473 213.003 236.661V224.389H210.578V222.074H213.003V216.574H217.258V222.074H220.959V224.389H217.258V236.434C217.197 236.988 217.353 237.543 217.704 238.018C217.916 238.198 218.177 238.334 218.465 238.416C218.754 238.498 219.061 238.523 219.364 238.488H220.108H220.917V241.064L219.449 241.221L217.981 241.151Z" fill="#96D959"/>
<path d="M224.384 219.359V215.704H228.638V219.359H224.384ZM224.384 240.96V222.074H228.638V240.89L224.384 240.96Z" fill="#96D959"/>
<path d="M239.53 241.151C238.117 241.212 236.715 240.921 235.509 240.316C234.497 239.721 233.75 238.871 233.382 237.897C232.947 236.706 232.739 235.467 232.765 234.224V228.758C232.74 227.51 232.948 226.265 233.382 225.068C233.756 224.101 234.502 223.258 235.509 222.666C236.712 222.055 238.115 221.757 239.53 221.813C240.938 221.753 242.335 222.051 243.529 222.666C244.536 223.258 245.282 224.101 245.656 225.068C246.082 226.266 246.283 227.511 246.252 228.758V234.224C246.283 235.466 246.082 236.704 245.656 237.897C245.288 238.871 244.541 239.721 243.529 240.316C242.333 240.925 240.936 241.217 239.53 241.151ZM239.53 238.593C239.856 238.611 240.184 238.567 240.486 238.464C240.789 238.361 241.059 238.203 241.274 238.001C241.632 237.535 241.837 237.002 241.87 236.452C241.87 235.808 241.87 235.146 241.87 234.45V228.567C241.87 227.836 241.87 227.174 241.87 226.548C241.831 225.999 241.626 225.467 241.274 224.999C241.069 224.786 240.802 224.618 240.497 224.512C240.192 224.405 239.859 224.363 239.53 224.389C239.2 224.365 238.868 224.408 238.564 224.514C238.259 224.62 237.992 224.787 237.785 224.999C237.417 225.462 237.204 225.996 237.168 226.548C237.168 227.174 237.168 227.836 237.168 228.567V234.45C237.168 235.146 237.168 235.808 237.168 236.452C237.197 237.005 237.411 237.54 237.785 238.001C238.001 238.203 238.27 238.361 238.573 238.464C238.875 238.567 239.203 238.611 239.53 238.593Z" fill="#96D959"/>
<path d="M250.123 240.89V222.074H254.378V223.937C255.146 223.35 256.004 222.846 256.93 222.44C257.868 222.017 258.923 221.801 259.993 221.813C260.769 221.778 261.532 221.99 262.121 222.405C262.614 222.81 262.966 223.314 263.142 223.867C263.34 224.433 263.441 225.019 263.44 225.608V240.838H259.185V226.67C259.225 226.131 259.101 225.593 258.823 225.103C258.668 224.908 258.447 224.753 258.186 224.657C257.926 224.561 257.638 224.529 257.356 224.563C256.834 224.571 256.322 224.685 255.867 224.894C255.335 225.129 254.836 225.409 254.378 225.73V240.89H250.123Z" fill="#96D959"/>
<path d="M272.906 241.151C272.069 241.183 271.234 241.07 270.453 240.822C269.673 240.573 268.965 240.193 268.375 239.707C267.196 238.658 266.51 237.301 266.439 235.877L269.97 235.007C270.077 235.957 270.448 236.874 271.055 237.688C271.286 237.974 271.603 238.207 271.975 238.366C272.347 238.524 272.763 238.602 273.182 238.593C273.506 238.608 273.83 238.568 274.134 238.475C274.438 238.382 274.715 238.238 274.948 238.053C275.355 237.647 275.566 237.133 275.543 236.608C275.555 236.092 275.401 235.582 275.097 235.129C274.723 234.621 274.24 234.173 273.672 233.806L269.736 231.039C268.919 230.494 268.202 229.854 267.609 229.141C267.023 228.326 266.742 227.388 266.801 226.443C266.762 225.564 267.012 224.693 267.524 223.919C268.027 223.236 268.768 222.691 269.651 222.353C270.623 221.982 271.685 221.797 272.757 221.813C273.556 221.769 274.357 221.879 275.095 222.132C275.834 222.386 276.49 222.778 277.011 223.275C277.987 224.268 278.56 225.485 278.649 226.757L275.799 227.627C275.711 227.034 275.547 226.451 275.309 225.886C275.147 225.452 274.846 225.062 274.437 224.755C274.03 224.469 273.506 224.32 272.97 224.337C272.658 224.328 272.349 224.374 272.062 224.474C271.775 224.573 271.519 224.722 271.31 224.912C270.907 225.286 270.687 225.77 270.693 226.269C270.697 226.599 270.784 226.925 270.949 227.227C271.174 227.582 271.485 227.895 271.863 228.149L275.905 231.213C276.467 231.629 276.993 232.077 277.479 232.553C277.981 233.039 278.39 233.585 278.692 234.172C279.031 234.845 279.198 235.567 279.181 236.295C279.218 237.227 278.939 238.149 278.373 238.958C277.87 239.655 277.131 240.217 276.245 240.577C275.193 240.957 274.056 241.153 272.906 241.151Z" fill="#96D959"/>
<path d="M283.648 235.268L282.308 214.538H286.563L285.116 235.268H283.648ZM282.308 240.89V237.322H286.563V240.89H282.308Z" fill="#96D959"/>
</svg>
