<svg width="1024" height="762" viewBox="0 0 1024 762" fill="none" xmlns="http://www.w3.org/2000/svg">
<path d="M921.395 703.582H853.565V704.094H921.395V703.582Z" fill="#EBEBEB"/>
<path d="M678.339 709.153H660.542V709.665H678.339V709.153Z" fill="#EBEBEB"/>
<path d="M851.517 684.573H812.216V685.085H851.517V684.573Z" fill="#EBEBEB"/>
<path d="M195.891 688.014H107.438V688.526H195.891V688.014Z" fill="#EBEBEB"/>
<path d="M227.103 688.014H214.139V688.526H227.103V688.014Z" fill="#EBEBEB"/>
<path d="M269.243 696.213L269.24 696.725L461.095 697.596L461.097 697.084L269.243 696.213Z" fill="#EBEBEB"/>
<path d="M488.243 579.268H92.7744C89.6729 579.268 86.6985 578.036 84.5054 575.843C82.3124 573.649 81.0803 570.674 81.0803 567.572V11.5936C81.1073 8.50937 82.3513 5.5607 84.5414 3.38939C86.7316 1.21807 89.6906 -0.000118242 92.7744 8.60821e-09H488.243C489.779 8.60823e-09 491.3 0.302523 492.718 0.890301C494.137 1.47808 495.426 2.3396 496.512 3.42567C497.598 4.51174 498.459 5.8011 499.047 7.22012C499.635 8.63914 499.937 10.16 499.937 11.696V567.572C499.937 569.108 499.635 570.629 499.047 572.048C498.459 573.467 497.598 574.757 496.512 575.843C495.426 576.929 494.137 577.79 492.718 578.378C491.3 578.966 489.779 579.268 488.243 579.268ZM92.7744 0.409668C89.8104 0.415083 86.9693 1.59512 84.8735 3.69133C82.7776 5.78755 81.5977 8.62907 81.5923 11.5936V567.572C81.5977 570.537 82.7776 573.378 84.8735 575.475C86.9693 577.571 89.8104 578.751 92.7744 578.756H488.243C491.207 578.751 494.048 577.571 496.144 575.475C498.24 573.378 499.42 570.537 499.425 567.572V11.5936C499.42 8.62907 498.24 5.78755 496.144 3.69133C494.048 1.59512 491.207 0.415083 488.243 0.409668H92.7744Z" fill="#EBEBEB"/>
<path d="M931.226 579.268H535.757C532.656 579.268 529.681 578.036 527.488 575.843C525.295 573.649 524.063 570.674 524.063 567.572V11.5936C524.09 8.50937 525.334 5.5607 527.524 3.38939C529.714 1.21807 532.673 -0.000118242 535.757 8.60821e-09H931.226C934.327 8.60824e-09 937.302 1.23225 939.495 3.42567C941.688 5.61909 942.92 8.59401 942.92 11.696V567.572C942.92 570.674 941.688 573.649 939.495 575.843C937.302 578.036 934.327 579.268 931.226 579.268ZM535.757 0.409668C532.793 0.415083 529.952 1.59512 527.856 3.69133C525.76 5.78755 524.58 8.62907 524.575 11.5936V567.572C524.58 570.537 525.76 573.378 527.856 575.475C529.952 577.571 532.793 578.751 535.757 578.756H931.226C934.19 578.751 937.031 577.571 939.127 575.475C941.223 573.378 942.403 570.537 942.408 567.572V11.5936C942.403 8.62907 941.223 5.78755 939.127 3.69133C937.031 1.59512 934.19 0.415083 931.226 0.409668H535.757Z" fill="#EBEBEB"/>
<path d="M1024 670.624H0V671.136H1024V670.624Z" fill="#EBEBEB"/>
<path d="M857.989 501.923H564.388C542.139 501.923 524.104 519.962 524.104 542.214V629.616C524.104 651.868 542.139 669.907 564.388 669.907H857.989C880.237 669.907 898.273 651.868 898.273 629.616V542.214C898.273 519.962 880.237 501.923 857.989 501.923Z" fill="#E0E0E0"/>
<path d="M838.267 503.152H544.666C522.417 503.152 504.382 521.191 504.382 543.443V630.845C504.382 653.097 522.417 671.136 544.666 671.136H838.267C860.515 671.136 878.551 653.097 878.551 630.845V543.443C878.551 521.191 860.515 503.152 838.267 503.152Z" fill="#F5F5F5"/>
<path d="M551.874 518.986H833.27C840.733 518.986 847.89 521.951 853.167 527.229C858.444 532.507 861.409 539.666 861.409 547.13V581.726H523.735V547.13C523.735 543.434 524.463 539.774 525.877 536.36C527.291 532.945 529.364 529.842 531.977 527.229C534.59 524.616 537.692 522.543 541.106 521.128C544.52 519.714 548.179 518.986 551.874 518.986Z" fill="#E0E0E0"/>
<path d="M523.735 590.145H861.409V624.741C861.409 632.206 858.444 639.364 853.167 644.642C847.89 649.92 840.733 652.885 833.27 652.885H551.874C548.179 652.885 544.52 652.157 541.106 650.743C537.692 649.329 534.59 647.256 531.977 644.642C529.364 642.029 527.291 638.926 525.877 635.512C524.463 632.097 523.735 628.437 523.735 624.741V590.145Z" fill="#E0E0E0"/>
<path d="M771.727 531.132H723.866V582.075H771.727V531.132Z" fill="#E6E6E6"/>
<path d="M723.866 531.132H711.598V582.075H723.866V531.132Z" fill="#F5F5F5"/>
<path d="M784.261 523.267H748.319V582.074H784.261V523.267Z" fill="#E6E6E6"/>
<path d="M748.339 523.267H737.935V582.074H748.339V523.267Z" fill="#F5F5F5"/>
<path d="M789.217 531.132H758.907V582.075H789.217V531.132Z" fill="#EBEBEB"/>
<path d="M758.907 531.132H751.984V582.075H758.907V531.132Z" fill="#F5F5F5"/>
<path d="M823.48 539.756H783.729V582.095H823.48V539.756Z" fill="#E6E6E6"/>
<path d="M783.708 539.756H773.529V582.095H783.708V539.756Z" fill="#F5F5F5"/>
<path d="M833.884 533.222H804.024V582.075H833.884V533.222Z" fill="#E6E6E6"/>
<path d="M804.045 533.222H795.402V582.075H804.045V533.222Z" fill="#F5F5F5"/>
<path d="M841.851 539.756H812.831V582.095H841.851V539.756Z" fill="#E6E6E6"/>
<path d="M812.832 539.756H807.076V582.095H812.832V539.756Z" fill="#F0F0F0"/>
<path d="M622.797 599.936H574.935V650.878H622.797V599.936Z" fill="#E6E6E6"/>
<path d="M574.955 599.936H562.688V650.878H574.955V599.936Z" fill="#F5F5F5"/>
<path d="M635.331 592.07H599.388V650.878H635.331V592.07Z" fill="#E6E6E6"/>
<path d="M599.409 592.07H589.025V650.878H599.409V592.07Z" fill="#F5F5F5"/>
<path d="M786.063 599.936H738.202V650.878H786.063V599.936Z" fill="#E6E6E6"/>
<path d="M738.222 599.936H725.955V650.878H738.222V599.936Z" fill="#F5F5F5"/>
<path d="M798.597 592.07H762.655V650.878H798.597V592.07Z" fill="#E6E6E6"/>
<path d="M762.675 592.07H752.271V650.878H762.675V592.07Z" fill="#F5F5F5"/>
<path d="M640.307 599.936H609.997V650.878H640.307V599.936Z" fill="#EBEBEB"/>
<path d="M609.976 599.936H603.054V650.878H609.976V599.936Z" fill="#F5F5F5"/>
<path d="M674.55 608.559H634.798V650.898H674.55V608.559Z" fill="#E6E6E6"/>
<path d="M634.798 608.559H624.62V650.898H634.798V608.559Z" fill="#F5F5F5"/>
<path d="M684.974 602.025H655.114V650.878H684.974V602.025Z" fill="#E6E6E6"/>
<path d="M655.135 602.025H646.492V650.878H655.135V602.025Z" fill="#F5F5F5"/>
<path d="M692.941 608.559H663.921V650.898H692.941V608.559Z" fill="#E6E6E6"/>
<path d="M663.901 608.559H658.146V650.898H663.901V608.559Z" fill="#F0F0F0"/>
<path d="M622.407 532.689C621.908 531.708 621.108 530.913 620.124 530.419C619.14 529.925 618.024 529.759 616.939 529.944C615.85 530.211 614.871 530.81 614.137 531.657C613.404 532.505 612.951 533.56 612.843 534.676C612.098 534.124 611.202 533.815 610.275 533.789C609.348 533.763 608.436 534.023 607.662 534.533C606.887 535.095 606.285 535.863 605.923 536.75C605.561 537.637 605.454 538.607 605.614 539.551C605.179 539.24 604.683 539.023 604.159 538.915C603.635 538.807 603.094 538.81 602.571 538.923C602.048 539.037 601.555 539.26 601.123 539.576C600.691 539.892 600.33 540.295 600.064 540.76C599.555 541.744 599.448 542.888 599.765 543.95C600.082 545.012 600.798 545.909 601.764 546.454C601.079 546.529 600.447 546.858 599.994 547.377C599.541 547.896 599.3 548.566 599.318 549.254C599.336 549.943 599.612 550.6 600.092 551.094C600.571 551.588 601.219 551.884 601.907 551.923C601.22 551.967 600.57 552.252 600.072 552.728C599.573 553.203 599.259 553.84 599.183 554.524C599.109 555.213 599.271 555.907 599.643 556.491C600.015 557.076 600.575 557.516 601.231 557.74C600.907 557.927 600.63 558.185 600.419 558.493C600.207 558.802 600.068 559.154 600.011 559.523C599.954 559.893 599.981 560.27 600.089 560.628C600.198 560.986 600.385 561.315 600.637 561.591C600.926 561.816 601.265 561.968 601.626 562.033C601.986 562.097 602.357 562.073 602.706 561.962C603.055 561.851 603.371 561.657 603.628 561.396C603.885 561.135 604.075 560.815 604.18 560.465C604.231 560.566 604.306 560.653 604.397 560.72C604.489 560.787 604.595 560.832 604.707 560.85C604.819 560.868 604.933 560.859 605.041 560.824C605.149 560.789 605.247 560.729 605.327 560.649C605.403 560.56 605.458 560.455 605.49 560.343C605.521 560.23 605.527 560.112 605.507 559.997C605.488 559.881 605.443 559.772 605.377 559.676C605.31 559.58 605.223 559.499 605.122 559.44C605.288 559.628 605.503 559.766 605.742 559.838C605.982 559.911 606.237 559.916 606.479 559.852C606.721 559.789 606.941 559.659 607.113 559.478C607.286 559.296 607.405 559.071 607.457 558.826C607.378 559.408 607.453 560.001 607.673 560.545C607.893 561.09 608.251 561.568 608.712 561.931C609.173 562.295 609.721 562.533 610.302 562.62C610.883 562.708 611.476 562.643 612.024 562.431C611.908 562.701 611.852 562.992 611.859 563.286C611.866 563.58 611.936 563.868 612.064 564.133C612.192 564.397 612.376 564.63 612.602 564.817C612.828 565.004 613.092 565.141 613.376 565.217C614.518 565.404 615.689 565.171 616.673 564.561C617.65 563.947 618.759 563.575 619.909 563.476C620.905 563.602 621.877 563.871 622.797 564.274C624.338 564.746 625.98 564.779 627.539 564.37C629.097 563.961 630.512 563.127 631.623 561.96C632.041 562.438 632.572 562.802 633.168 563.02C633.763 563.238 634.405 563.302 635.032 563.206C635.659 563.11 636.251 562.857 636.754 562.471C637.258 562.085 637.656 561.578 637.911 560.997C638.031 561.585 638.336 562.12 638.782 562.522C639.228 562.924 639.791 563.172 640.389 563.23C640.991 563.236 641.58 563.046 642.064 562.687C642.548 562.328 642.902 561.821 643.072 561.243V562.841C643.63 562.888 644.191 562.794 644.704 562.567C645.216 562.341 645.663 561.989 646.004 561.544C646.345 561.099 646.568 560.576 646.653 560.022C646.738 559.468 646.683 558.902 646.492 558.375C647.298 558.344 648.066 558.028 648.662 557.485C649.258 556.941 649.643 556.205 649.748 555.405C649.84 554.597 649.649 553.783 649.209 553.1C648.768 552.417 648.105 551.907 647.332 551.657C648.645 551.221 649.789 550.386 650.604 549.268C651.419 548.151 651.864 546.806 651.878 545.422C651.892 544.039 651.472 542.686 650.679 541.552C649.886 540.419 648.759 539.562 647.455 539.1C646.959 538.908 646.423 538.844 645.896 538.916C645.37 538.988 644.87 539.192 644.444 539.51C644.24 539.687 644.076 539.906 643.964 540.151C643.852 540.397 643.794 540.664 643.794 540.934C643.794 541.204 643.852 541.47 643.964 541.716C644.076 541.962 644.24 542.18 644.444 542.357C644.798 541.094 644.739 539.75 644.275 538.523C643.81 537.295 642.965 536.249 641.863 535.536C640.735 534.933 639.43 534.749 638.178 535.015C636.926 535.281 635.809 535.981 635.023 536.991C635.397 536.433 635.597 535.777 635.597 535.106C635.597 534.435 635.397 533.779 635.023 533.222C634.659 532.686 634.13 532.284 633.516 532.077C632.902 531.87 632.238 531.869 631.623 532.075C631.469 531.232 631.005 530.477 630.323 529.958C629.641 529.439 628.791 529.193 627.937 529.268C627.09 529.459 626.341 529.95 625.829 530.65C625.317 531.351 625.076 532.214 625.152 533.078C625.085 532.742 624.919 532.434 624.675 532.193C624.432 531.952 624.122 531.789 623.785 531.725C623.449 531.661 623.101 531.699 622.786 531.835C622.471 531.97 622.204 532.196 622.018 532.484C621.199 532.198 622.407 532.689 622.407 532.689Z" fill="#EBEBEB"/>
<path d="M623.022 548.953C622.687 548.706 622.307 548.528 621.902 548.429C621.498 548.331 621.078 548.314 620.667 548.38C620.262 548.459 619.888 548.651 619.587 548.933C619.286 549.216 619.071 549.578 618.967 549.977C618.883 550.383 618.954 550.806 619.166 551.163C619.379 551.519 619.717 551.783 620.114 551.903C621.077 552.148 622.06 551.35 623.043 551.473C623.397 551.56 623.746 551.67 624.087 551.8C624.833 551.88 625.588 551.793 626.297 551.545C627.005 551.297 627.649 550.894 628.183 550.366C628.621 550.075 629.002 549.707 629.309 549.281C629.462 549.069 629.554 548.82 629.576 548.56C629.598 548.301 629.548 548.04 629.432 547.806C629.192 547.539 628.886 547.339 628.545 547.228C628.203 547.117 627.838 547.097 627.487 547.171C626.033 547.34 624.656 547.915 623.514 548.83C623.514 548.605 623.514 548.379 623.514 548.154L623.022 548.953Z" fill="#FAFAFA"/>
<path d="M643.768 547.806C643.398 547.509 642.974 547.286 642.519 547.15C642.252 547.055 641.959 547.063 641.698 547.174C641.437 547.285 641.228 547.49 641.111 547.749C640.995 548.007 640.981 548.3 641.071 548.569C641.161 548.838 641.349 549.063 641.597 549.199C642.129 549.568 642.753 549.781 643.4 549.813C644.076 549.916 644.895 549.957 645.223 549.363C645.316 549.14 645.337 548.893 645.282 548.657C645.226 548.422 645.098 548.21 644.915 548.052C644.537 547.748 644.096 547.532 643.625 547.417L643.768 547.806Z" fill="#FAFAFA"/>
<path d="M610.98 537.011C610.322 537.297 609.74 537.733 609.281 538.285C608.822 538.836 608.499 539.487 608.338 540.186C608.259 540.387 608.245 540.606 608.296 540.815C608.348 541.024 608.462 541.212 608.624 541.354C608.767 541.415 608.92 541.446 609.075 541.446C609.23 541.446 609.383 541.415 609.525 541.354L613.314 540.453C612.699 540.661 612.124 540.972 611.614 541.374C611.357 541.577 611.16 541.847 611.045 542.154C610.929 542.461 610.9 542.793 610.959 543.115C611.084 543.476 611.324 543.786 611.642 543.997C611.961 544.208 612.339 544.308 612.72 544.283C613.469 544.219 614.182 543.934 614.768 543.464C615.119 543.256 615.42 542.975 615.65 542.638C615.88 542.302 616.033 541.92 616.1 541.518C616.1 540.698 615.076 539.94 614.461 540.453C615.918 540.066 617.302 539.443 618.557 538.609C619.016 538.321 619.412 537.945 619.725 537.503C619.878 537.276 619.971 537.014 619.992 536.741C620.014 536.468 619.964 536.194 619.847 535.946C618.557 533.591 616.919 537.052 616.12 537.36C614.625 537.974 612.905 536.212 610.98 537.011Z" fill="#FAFAFA"/>
<path d="M605.082 547.089C605.005 547.316 604.995 547.56 605.053 547.793C605.111 548.025 605.235 548.236 605.41 548.4C605.501 548.474 605.608 548.527 605.723 548.555C605.837 548.583 605.956 548.586 606.072 548.562C606.187 548.539 606.296 548.49 606.391 548.419C606.485 548.349 606.563 548.258 606.618 548.154C605.75 548.339 604.957 548.781 604.345 549.424C604.207 549.595 604.109 549.794 604.056 550.007C604.004 550.219 603.999 550.441 604.042 550.656C604.085 550.871 604.175 551.074 604.305 551.251C604.435 551.427 604.603 551.573 604.795 551.677C605.068 551.729 605.348 551.725 605.619 551.665C605.891 551.605 606.147 551.491 606.372 551.329C607.743 550.567 609.051 549.698 610.284 548.728C609.915 549.608 610.816 550.592 611.758 550.674C612.715 550.656 613.641 550.333 614.4 549.752C615.404 549.137 616.448 548.216 616.285 547.089C616.082 546.635 615.72 546.27 615.268 546.063C614.816 545.855 614.303 545.82 613.827 545.962C612.877 546.34 612.049 546.971 611.431 547.785C611.963 547.007 611.205 545.839 610.284 545.737C609.828 545.714 609.373 545.803 608.959 545.996C608.545 546.188 608.184 546.479 607.908 546.843C608.953 546.27 609.198 544.795 607.785 544.57C606.864 544.447 605.307 546.311 605.082 547.089Z" fill="#FAFAFA"/>
<path d="M634.081 543.689C633.879 543.609 633.663 543.572 633.446 543.582C633.229 543.592 633.016 543.648 632.822 543.746C632.629 543.843 632.458 543.981 632.321 544.15C632.184 544.319 632.085 544.515 632.03 544.725C631.974 544.935 631.964 545.154 632 545.369C632.035 545.583 632.116 545.787 632.236 545.968C632.356 546.149 632.514 546.302 632.698 546.418C632.881 546.533 633.088 546.608 633.303 546.638C632.993 546.661 632.691 546.747 632.416 546.891C632.141 547.036 631.899 547.236 631.705 547.478C631.584 547.602 631.491 547.75 631.431 547.912C631.371 548.075 631.346 548.248 631.357 548.42C631.421 548.669 631.567 548.889 631.772 549.045C631.976 549.201 632.227 549.284 632.484 549.281C633.006 549.258 633.517 549.118 633.979 548.871C633.465 548.865 632.96 549.008 632.525 549.281C632.418 549.352 632.327 549.445 632.258 549.553C632.188 549.661 632.142 549.782 632.12 549.908C632.099 550.035 632.104 550.164 632.135 550.289C632.166 550.413 632.222 550.53 632.299 550.633C632.472 550.758 632.675 550.835 632.887 550.857C633.099 550.879 633.313 550.844 633.508 550.756C634.444 550.507 635.303 550.028 636.006 549.363C636.252 549.663 636.566 549.9 636.923 550.053C637.279 550.207 637.667 550.272 638.054 550.243C638.246 550.214 638.429 550.146 638.594 550.044C638.759 549.941 638.901 549.806 639.012 549.648C639.123 549.489 639.2 549.309 639.24 549.119C639.28 548.929 639.28 548.733 639.242 548.543C639.134 548.283 638.957 548.057 638.729 547.891C638.501 547.725 638.233 547.625 637.952 547.601C637.386 547.569 636.82 547.66 636.293 547.867C636.887 547.536 637.355 547.017 637.624 546.393C637.829 545.758 637.399 544.897 636.723 544.959C636.047 545.02 635.597 546.044 635.003 546.413C634.306 545.717 635.679 544.283 634.081 543.689Z" fill="#FAFAFA"/>
<path d="M620.544 540.555C620.141 540.884 619.827 541.311 619.634 541.795C619.44 542.278 619.373 542.803 619.438 543.32C619.438 543.891 619.589 544.452 619.877 544.946C620.165 545.439 620.579 545.846 621.077 546.126C621.431 546.237 621.805 546.27 622.173 546.224C622.541 546.178 622.895 546.054 623.211 545.86C623.528 545.666 623.799 545.407 624.006 545.099C624.214 544.792 624.354 544.444 624.416 544.078C624.491 543.331 624.335 542.578 623.969 541.922C623.602 541.267 623.043 540.739 622.367 540.412C622.073 540.293 621.755 540.244 621.439 540.269C621.123 540.293 620.816 540.391 620.544 540.555Z" fill="#FAFAFA"/>
<path d="M630.128 539.346L630.477 539.633C630.333 539.439 630.151 539.277 629.94 539.158C629.73 539.038 629.498 538.965 629.257 538.942C629.017 538.918 628.774 538.946 628.545 539.023C628.316 539.1 628.106 539.224 627.928 539.387C627.75 539.551 627.609 539.75 627.513 539.971C627.417 540.193 627.369 540.432 627.372 540.674C627.374 540.916 627.428 541.154 627.529 541.373C627.63 541.593 627.776 541.788 627.957 541.948C628.315 542.256 628.779 542.411 629.25 542.381C629.721 542.35 630.162 542.136 630.477 541.784C630.971 542.018 631.528 542.088 632.065 541.985C632.603 541.882 633.093 541.611 633.467 541.21C633.786 540.777 633.922 540.236 633.846 539.703C633.769 539.17 633.486 538.689 633.057 538.363C632.82 538.248 632.558 538.193 632.295 538.204C632.031 538.214 631.774 538.29 631.547 538.424C631.32 538.557 631.13 538.745 630.993 538.971C630.856 539.196 630.777 539.452 630.763 539.715L630.354 539.264L630.128 539.346Z" fill="#FAFAFA"/>
<path d="M640.717 541.046C639.973 541.648 639.407 542.441 639.078 543.34C638.934 543.795 638.966 544.287 639.167 544.719C639.368 545.151 639.724 545.493 640.164 545.675C641.086 545.901 641.946 545.143 642.479 544.365C642.743 544.027 642.93 543.636 643.026 543.218C643.121 542.8 643.123 542.366 643.032 541.947C642.765 541.149 641.598 540.657 640.983 541.292L640.717 541.046Z" fill="#FAFAFA"/>
<path d="M625.46 535.495C625.36 535.31 625.223 535.147 625.058 535.017C624.894 534.886 624.704 534.79 624.501 534.734C624.298 534.679 624.086 534.665 623.878 534.694C623.669 534.722 623.469 534.793 623.289 534.901C622.945 535.147 622.694 535.5 622.575 535.904C622.457 536.309 622.477 536.742 622.633 537.134C622.813 537.535 623.098 537.878 623.46 538.127C623.821 538.377 624.243 538.522 624.681 538.547C625.705 538.65 626.934 537.81 626.729 536.786C626.975 537.08 627.293 537.305 627.652 537.438C628.012 537.571 628.4 537.608 628.777 537.544C629.508 537.436 630.207 537.17 630.825 536.765C631.706 536.274 632.628 535.495 632.546 534.492C632.474 534.094 632.272 533.731 631.972 533.46C631.672 533.19 631.29 533.026 630.887 532.996C630.486 532.982 630.086 533.047 629.71 533.188C629.333 533.328 628.989 533.542 628.695 533.816C628.256 534.266 627.791 534.69 627.303 535.086C627.056 535.285 626.761 535.414 626.448 535.461C626.135 535.508 625.815 535.47 625.521 535.352L625.46 535.495Z" fill="#FAFAFA"/>
<path d="M638.485 582.074H612.25L609.69 555.63H641.045L638.485 582.074Z" fill="#F0F0F0"/>
<path d="M643.072 557.003H607.396L606.761 553.48H643.728L643.072 557.003Z" fill="#FAFAFA"/>
<path d="M849.142 501.288H819.036L828.477 470.891L829.85 466.446H836.669L849.142 501.288Z" fill="#E0E0E0"/>
<path d="M829.85 466.446L828.477 470.891L819.036 501.288L791.204 500.858L782.254 470.891L780.882 466.446H829.85Z" fill="#E0E0E0"/>
<path d="M829.85 466.446L828.477 470.891L819.036 501.288L761.876 500.428L774.062 466.446H829.85Z" fill="#FAFAFA"/>
<path d="M829.85 466.446L828.478 470.891H772.485L774.062 466.446H829.85Z" fill="#EBEBEB"/>
<path d="M781.086 485.332H768.532L772.915 473.042L784.916 473.165L781.086 485.332ZM769.986 484.308H780.226L783.421 474.066L773.529 473.943L769.986 484.308Z" fill="#EBEBEB"/>
<path d="M795.136 485.332H782.582L786.965 473.042L798.966 473.165L795.136 485.332ZM784.036 484.308H794.379L797.573 474.066L787.682 473.943L784.036 484.308Z" fill="#EBEBEB"/>
<path d="M809.165 485.332H796.672L801.055 473.042L813.056 473.165L809.165 485.332ZM798.065 484.308H808.428L811.623 474.066L801.71 473.943L798.065 484.308Z" fill="#EBEBEB"/>
<path d="M823.296 485.332H810.742L815.124 473.042L827.126 473.165L823.296 485.332ZM812.196 484.308H822.436L825.631 474.066L815.739 473.943L812.196 484.308Z" fill="#EBEBEB"/>
<path d="M776.704 498.441H764.149L768.532 486.151L780.533 486.294L776.704 498.441ZM765.603 497.417H775.946L779.141 487.175L769.249 487.073L765.603 497.417Z" fill="#EBEBEB"/>
<path d="M790.753 498.441H778.24L782.623 486.151L794.624 486.294L790.753 498.441ZM779.653 497.417H789.996L793.191 487.175L783.299 487.073L779.653 497.417Z" fill="#EBEBEB"/>
<path d="M804.864 498.441H792.33L796.692 486.151L808.714 486.294L804.864 498.441ZM793.764 497.417H804.127L807.321 487.175L797.43 487.073L793.764 497.417Z" fill="#EBEBEB"/>
<path d="M818.832 498.441H806.277L810.66 486.151L822.661 486.294L818.832 498.441ZM807.731 497.417H818.074L821.269 487.175L811.377 487.073L807.731 497.417Z" fill="#EBEBEB"/>
<path d="M706.56 501.841H671.499V481.768C671.499 479.461 671.953 477.176 672.836 475.045C673.72 472.914 675.014 470.978 676.646 469.348C678.278 467.717 680.216 466.425 682.347 465.544C684.479 464.663 686.764 464.211 689.07 464.214C693.715 464.23 698.163 466.086 701.441 469.377C704.72 472.667 706.56 477.123 706.56 481.768V501.841Z" fill="#F0F0F0"/>
<path d="M688.845 497.499C697.022 497.499 703.652 490.868 703.652 482.689C703.652 474.51 697.022 467.88 688.845 467.88C680.667 467.88 674.038 474.51 674.038 482.689C674.038 490.868 680.667 497.499 688.845 497.499Z" fill="white"/>
<path d="M700.539 482.689C700.543 485.044 699.849 487.347 698.544 489.307C697.239 491.266 695.382 492.795 693.208 493.699C691.034 494.603 688.641 494.841 686.331 494.385C684.022 493.928 681.9 492.796 680.234 491.132C678.567 489.469 677.432 487.348 676.971 485.039C676.511 482.73 676.745 480.336 677.645 478.16C678.545 475.985 680.07 474.125 682.027 472.816C683.984 471.508 686.286 470.809 688.64 470.809C691.792 470.809 694.816 472.06 697.047 474.288C699.278 476.515 700.534 479.537 700.539 482.689Z" fill="#EBEBEB"/>
<path d="M690.033 482.956C690.037 483.212 689.964 483.465 689.824 483.68C689.684 483.895 689.482 484.064 689.246 484.164C689.009 484.264 688.748 484.292 688.496 484.242C688.244 484.193 688.012 484.07 687.83 483.888C687.648 483.707 687.525 483.475 687.476 483.223C687.427 482.97 687.454 482.709 687.554 482.473C687.654 482.236 687.823 482.035 688.038 481.894C688.254 481.754 688.506 481.682 688.763 481.686C689.098 481.691 689.418 481.826 689.655 482.063C689.892 482.3 690.028 482.62 690.033 482.956Z" fill="#FAFAFA"/>
<path d="M688.62 483.427L683.172 478.326L683.704 477.753L688.62 482.403L697.467 474.599L697.958 475.172L688.62 483.427Z" fill="#FAFAFA"/>
<path d="M185.467 472.407H153.948C144.922 472.407 137.605 479.725 137.605 488.752V520.276C137.605 529.304 144.922 536.622 153.948 536.622H185.467C194.493 536.622 201.81 529.304 201.81 520.276V488.752C201.81 479.725 194.493 472.407 185.467 472.407Z" fill="#E0E0E0"/>
<path d="M186.818 488.507H153.252V495.02H186.818V488.507Z" fill="#FAFAFA"/>
<path d="M186.818 501.022H153.252V507.536H186.818V501.022Z" fill="#FAFAFA"/>
<path d="M186.818 513.517H153.252V520.031H186.818V513.517Z" fill="#FAFAFA"/>
<path d="M828.621 180.13L820.9 186.931L825.754 195.349L835.502 192.052C839.608 196.432 844.916 199.504 850.76 200.88L852.808 210.958H862.536L864.584 200.88C870.428 199.504 875.735 196.432 879.841 192.052L889.59 195.349L894.444 186.931L886.723 180.13C888.47 174.388 888.47 168.257 886.723 162.515L894.444 155.735L889.59 147.296L879.841 150.593C875.734 146.218 870.426 143.154 864.584 141.786L862.536 131.708H852.787L850.739 141.786C844.897 143.154 839.589 146.218 835.482 150.593L825.733 147.296L820.9 155.673L828.621 162.453C826.902 168.199 826.902 174.323 828.621 180.069V180.13ZM841.892 171.937C841.896 168.822 842.823 165.779 844.556 163.191C846.289 160.604 848.75 158.588 851.628 157.399C854.506 156.21 857.672 155.901 860.726 156.511C863.78 157.121 866.584 158.623 868.785 160.827C870.985 163.03 872.483 165.837 873.089 168.892C873.695 171.947 873.382 175.113 872.189 177.99C870.997 180.867 868.978 183.326 866.389 185.056C863.799 186.786 860.755 187.709 857.641 187.709C855.571 187.709 853.522 187.301 851.609 186.508C849.697 185.715 847.96 184.553 846.497 183.088C845.035 181.623 843.875 179.885 843.085 177.971C842.295 176.058 841.889 174.007 841.892 171.937Z" fill="#E0E0E0"/>
<path d="M751.329 100.02L743.424 104.465C744.019 108.26 745.014 111.981 746.393 115.567L755.548 115.423C756.692 117.901 758.063 120.266 759.644 122.49L754.934 130.335C757.371 133.345 760.117 136.091 763.126 138.529L770.969 133.838C773.2 135.408 775.564 136.779 778.035 137.935L777.892 147.091C781.476 148.47 785.197 149.465 788.992 150.061L793.436 142.052C794.788 142.175 796.139 142.257 797.532 142.257C798.925 142.257 800.256 142.257 801.628 142.052L806.072 150.061C809.867 149.465 813.587 148.47 817.172 147.091L817.008 137.935C819.49 136.788 821.862 135.417 824.095 133.838L831.938 138.529C834.952 136.096 837.699 133.35 840.13 130.335L835.42 122.49C836.986 120.257 838.357 117.893 839.516 115.423L848.671 115.567C850.05 111.981 851.045 108.26 851.64 104.465L843.632 100.02C843.755 98.6886 843.817 97.3162 843.817 95.9233C843.817 94.5305 843.817 93.1786 843.632 91.8267L851.64 87.3613C851.048 83.5722 850.052 79.8573 848.671 76.2798L839.516 76.4232C838.357 73.9475 836.986 71.5764 835.42 69.336L840.13 61.5113C837.704 58.4919 834.957 55.7447 831.938 53.318L824.095 58.0087C821.857 56.4378 819.486 55.0669 817.008 53.912L817.172 44.7765C813.591 43.3878 809.869 42.392 806.072 41.8064L801.628 49.7949C800.276 49.7949 798.925 49.6105 797.532 49.6105C796.139 49.6105 794.788 49.6105 793.436 49.7949L788.992 41.8064C785.195 42.392 781.473 43.3878 777.892 44.7765L778.035 53.912C775.569 55.0762 773.205 56.4466 770.969 58.0087L763.126 53.318C760.112 55.7502 757.365 58.4969 754.934 61.5113L759.644 69.336C758.063 71.5668 756.692 73.9393 755.548 76.4232L746.393 76.2798C745.009 79.8705 744.013 83.5993 743.424 87.4023L751.432 91.8676C751.309 93.199 751.227 94.5509 751.227 95.9643C751.227 97.3776 751.206 98.6886 751.329 100.02ZM772.219 96.7631C772.219 91.7882 773.694 86.9251 776.457 82.7886C779.221 78.6521 783.148 75.4281 787.744 73.5243C792.339 71.6205 797.396 71.1224 802.275 72.0929C807.153 73.0635 811.634 75.4591 815.152 78.9769C818.669 82.4947 821.064 86.9766 822.034 91.8559C823.005 96.7352 822.507 101.793 820.603 106.389C818.7 110.985 815.476 114.914 811.34 117.678C807.205 120.441 802.342 121.917 797.368 121.917C794.065 121.919 790.793 121.271 787.741 120.007C784.688 118.744 781.915 116.892 779.579 114.555C777.243 112.219 775.391 109.445 774.128 106.392C772.865 103.339 772.216 100.067 772.219 96.7631Z" fill="#E0E0E0"/>
<path d="M512 762C731.305 762 909.087 751.619 909.087 738.813C909.087 726.007 731.305 715.626 512 715.626C292.695 715.626 114.913 726.007 114.913 738.813C114.913 751.619 292.695 762 512 762Z" fill="#F5F5F5"/>
<path d="M696.156 15.6902H114.565V415.77H696.156V15.6902Z" fill="#96D959"/>
<g opacity="0.3">
<path d="M696.156 15.6902H114.565V415.77H696.156V15.6902Z" fill="white"/>
</g>
<path d="M695.992 15.6902H114.565V47.3164H695.992V15.6902Z" fill="#263238"/>
<path d="M413.307 81.0116L439.931 76.3004L521.155 377.549L494.531 382.28C488.447 383.253 482.217 381.963 477.021 378.652C471.824 375.342 468.02 370.242 466.33 364.316L396.943 106.923C396.138 104.141 395.932 101.22 396.338 98.3524C396.744 95.4848 397.754 92.7361 399.3 90.2874C400.846 87.8387 402.894 85.7459 405.309 84.147C407.723 82.5481 410.449 81.4794 413.307 81.0116Z" fill="#96D959"/>
<g opacity="0.5">
<path d="M413.307 81.0116L439.931 76.3004L521.155 377.549L494.531 382.28C488.447 383.253 482.217 381.963 477.021 378.652C471.824 375.342 468.02 370.242 466.33 364.316L396.943 106.923C396.138 104.141 395.932 101.22 396.338 98.3524C396.744 95.4848 397.754 92.7361 399.3 90.2874C400.846 87.8387 402.894 85.7459 405.309 84.147C407.723 82.5481 410.449 81.4794 413.307 81.0116Z" fill="black"/>
</g>
<path d="M499.978 381.318L609.342 361.838C612.199 361.372 614.925 360.306 617.34 358.709C619.755 357.113 621.804 355.022 623.352 352.576C624.9 350.129 625.912 347.382 626.322 344.516C626.731 341.65 626.528 338.729 625.726 335.947L556.319 78.5536C554.628 72.6281 550.824 67.5278 545.628 64.2176C540.431 60.9073 534.202 59.6167 528.118 60.5897L418.755 80.0489C415.895 80.5142 413.167 81.581 410.75 83.1788C408.333 84.7767 406.283 86.8692 404.734 89.3181C403.186 91.7671 402.174 94.5167 401.767 97.3855C401.36 100.254 401.565 103.177 402.371 105.96L471.757 363.333C473.448 369.264 477.254 374.37 482.454 377.684C487.655 380.998 493.889 382.29 499.978 381.318Z" fill="#96D959"/>
<path d="M420.106 85.0877L448.512 80.0283C449.441 79.8624 450.399 80.0225 451.224 80.4816C452.048 80.9407 452.689 81.6705 453.038 82.5477L453.386 83.408C454.275 85.5233 455.848 87.2787 457.853 88.393C459.859 89.5073 462.18 89.9158 464.445 89.553L491.52 84.7804C492.588 84.6182 493.613 84.2463 494.537 83.6863C495.46 83.1262 496.264 82.389 496.901 81.5171C497.539 80.6452 497.998 79.6558 498.252 78.6058C498.506 77.5559 498.55 76.466 498.381 75.399L498.258 74.5183C498.133 73.6375 498.356 72.7428 498.88 72.0239C499.404 71.305 500.187 70.8184 501.064 70.6674L529.49 65.5466C534.175 64.8037 538.97 65.802 542.969 68.353C546.969 70.9041 549.896 74.8313 551.199 79.3933L620.544 336.848C621.174 338.991 621.34 341.244 621.031 343.457C620.721 345.67 619.944 347.791 618.75 349.679C617.556 351.567 615.973 353.179 614.107 354.406C612.241 355.634 610.135 356.45 607.928 356.799L498.565 376.279C493.877 377.027 489.077 376.031 485.073 373.48C481.069 370.928 478.139 366.998 476.836 362.432L407.552 105.038C406.922 102.9 406.754 100.651 407.059 98.4422C407.365 96.2333 408.137 94.1149 409.325 92.2277C410.512 90.3405 412.088 88.7277 413.947 87.4967C415.806 86.2656 417.905 85.4444 420.106 85.0877Z" fill="#96D959"/>
<path opacity="0.7" d="M420.106 85.0877L448.512 80.0283C449.441 79.8624 450.399 80.0225 451.224 80.4816C452.048 80.9407 452.689 81.6705 453.038 82.5477L453.386 83.408C454.275 85.5233 455.848 87.2787 457.853 88.393C459.859 89.5073 462.18 89.9158 464.445 89.553L491.52 84.7804C492.588 84.6182 493.613 84.2463 494.537 83.6863C495.46 83.1262 496.264 82.389 496.901 81.5171C497.539 80.6452 497.998 79.6558 498.252 78.6058C498.506 77.5559 498.55 76.466 498.381 75.399L498.258 74.5183C498.133 73.6375 498.356 72.7428 498.88 72.0239C499.404 71.305 500.187 70.8184 501.064 70.6674L529.49 65.5466C534.175 64.8037 538.97 65.802 542.969 68.353C546.969 70.9041 549.896 74.8313 551.199 79.3933L620.544 336.848C621.174 338.991 621.34 341.244 621.031 343.457C620.721 345.67 619.944 347.791 618.75 349.679C617.556 351.567 615.973 353.179 614.107 354.406C612.241 355.634 610.135 356.45 607.928 356.799L498.565 376.279C493.877 377.027 489.077 376.031 485.073 373.48C481.069 370.928 478.139 366.998 476.836 362.432L407.552 105.038C406.922 102.9 406.754 100.651 407.059 98.4422C407.365 96.2333 408.137 94.1149 409.325 92.2277C410.512 90.3405 412.088 88.7277 413.947 87.4967C415.806 86.2656 417.905 85.4444 420.106 85.0877Z" fill="white"/>
<path d="M482.181 77.0173C482.344 77.5957 482.714 78.0943 483.219 78.4189C483.725 78.7435 484.332 78.8715 484.926 78.7789C485.2 78.7261 485.461 78.6178 485.692 78.4605C485.923 78.3032 486.119 78.1003 486.269 77.8643C486.419 77.6283 486.519 77.3642 486.562 77.0882C486.606 76.8122 486.593 76.5302 486.524 76.2594C486.357 75.6834 485.987 75.1875 485.482 74.8636C484.977 74.5397 484.372 74.4097 483.779 74.4979C483.504 74.5506 483.244 74.659 483.013 74.8162C482.782 74.9735 482.585 75.1764 482.436 75.4124C482.286 75.6484 482.186 75.9125 482.142 76.1885C482.099 76.4645 482.112 76.7466 482.181 77.0173Z" fill="#263238"/>
<path d="M466.207 77.6318L473.641 76.3004C474.237 76.2069 474.847 76.3343 475.356 76.6586C475.865 76.983 476.239 77.482 476.406 78.062C476.475 78.3327 476.488 78.6148 476.445 78.8908C476.401 79.1668 476.301 79.4309 476.151 79.6669C476.002 79.9029 475.805 80.1058 475.574 80.2631C475.343 80.4203 475.083 80.5287 474.808 80.5814L467.354 81.9333C466.76 82.026 466.153 81.8979 465.647 81.5734C465.142 81.2488 464.772 80.7502 464.609 80.1718C464.537 79.8997 464.521 79.6156 464.563 79.3372C464.606 79.0587 464.705 78.792 464.855 78.5537C465.005 78.3153 465.202 78.1104 465.435 77.9518C465.667 77.7932 465.93 77.6843 466.207 77.6318Z" fill="#263238"/>
<path d="M537.928 76.4642L535.614 76.8739L535.02 74.6002L537.314 74.1906L537.928 76.4642Z" fill="#96D959"/>
<path d="M532.706 75.0099L533.32 77.2835L531.026 77.6932L530.412 75.4196L529.797 73.1664L532.091 72.7567L532.706 75.0099Z" fill="#96D959"/>
<path d="M526.889 71.3025L527.504 73.5761L528.118 75.8293L528.712 78.103L526.418 78.5126L525.804 76.239L525.189 73.9858L524.595 71.7122L526.889 71.3025Z" fill="#96D959"/>
<path d="M417.895 90.864L419.697 97.5006L429.814 95.6981L429.363 94.039L430.49 93.8546L429.589 90.5158L428.462 90.7207L428.012 89.0615L417.895 90.864ZM424.039 91.5195L427.397 90.9255L428.298 94.2438L424.919 94.8378L424.039 91.5195Z" fill="#96D959"/>
<path d="M436.224 150.634L458.752 146.538C459.718 146.382 460.64 146.023 461.456 145.484C462.273 144.945 462.966 144.239 463.489 143.412C464.012 142.585 464.353 141.656 464.489 140.687C464.626 139.718 464.555 138.731 464.281 137.791L458.301 115.649C457.747 113.632 456.47 111.891 454.713 110.757C452.956 109.623 450.843 109.177 448.778 109.504L426.25 113.498C425.284 113.654 424.362 114.013 423.545 114.552C422.729 115.091 422.036 115.797 421.513 116.624C420.99 117.451 420.649 118.38 420.512 119.349C420.376 120.318 420.447 121.305 420.72 122.245L426.701 144.387C427.233 146.422 428.502 148.188 430.261 149.342C432.02 150.496 434.145 150.956 436.224 150.634Z" fill="#96D959"/>
<path d="M481.71 142.523L504.238 138.426C505.206 138.274 506.129 137.917 506.948 137.379C507.766 136.841 508.46 136.134 508.984 135.306C509.507 134.478 509.848 133.548 509.983 132.578C510.118 131.607 510.045 130.62 509.768 129.68L503.808 107.619C503.254 105.603 501.977 103.861 500.22 102.728C498.463 101.594 496.35 101.148 494.285 101.474L471.757 105.571C470.791 105.727 469.869 106.086 469.052 106.625C468.236 107.164 467.543 107.87 467.02 108.697C466.497 109.524 466.156 110.453 466.019 111.422C465.883 112.391 465.954 113.378 466.227 114.317L472.187 136.48C472.765 138.475 474.052 140.191 475.806 141.303C477.559 142.416 479.659 142.85 481.71 142.523Z" fill="#96D959"/>
<path d="M527.278 134.412L549.806 130.315C550.774 130.163 551.698 129.805 552.516 129.267C553.334 128.729 554.029 128.022 554.552 127.195C555.075 126.367 555.416 125.436 555.551 124.466C555.686 123.496 555.613 122.508 555.336 121.569L549.356 99.4261C548.798 97.412 547.52 95.6732 545.764 94.5402C544.008 93.4072 541.897 92.9591 539.832 93.2811L517.304 97.2753C516.34 97.4339 515.42 97.7949 514.605 98.3347C513.79 98.8744 513.099 99.5807 512.576 100.407C512.054 101.233 511.713 102.161 511.574 103.128C511.436 104.096 511.505 105.082 511.775 106.022L517.755 128.185C518.296 130.214 519.567 131.972 521.325 133.121C523.083 134.27 525.203 134.73 527.278 134.412Z" fill="#96D959"/>
<path d="M452.608 211.613L475.136 207.516C476.104 207.364 477.027 207.007 477.846 206.469C478.664 205.931 479.358 205.224 479.882 204.396C480.405 203.568 480.746 202.638 480.881 201.668C481.016 200.698 480.943 199.71 480.666 198.77L474.706 176.628C474.152 174.611 472.875 172.87 471.118 171.736C469.361 170.602 467.248 170.156 465.183 170.483L442.655 174.477C441.691 174.635 440.771 174.996 439.957 175.536C439.142 176.076 438.452 176.783 437.931 177.61C437.411 178.436 437.071 179.364 436.936 180.332C436.8 181.3 436.872 182.285 437.146 183.223L443.105 205.386C443.646 207.411 444.914 209.166 446.667 210.315C448.421 211.464 450.536 211.926 452.608 211.613Z" fill="#96D959"/>
<path d="M498.156 203.502L520.684 199.405C521.651 199.253 522.575 198.896 523.393 198.357C524.212 197.819 524.906 197.113 525.429 196.285C525.953 195.457 526.293 194.527 526.429 193.556C526.564 192.586 526.49 191.598 526.213 190.659L520.192 168.598C519.638 166.582 518.361 164.84 516.604 163.706C514.847 162.573 512.734 162.127 510.669 162.453L488.141 166.55C487.175 166.705 486.253 167.064 485.436 167.603C484.62 168.142 483.927 168.849 483.404 169.676C482.881 170.503 482.54 171.432 482.403 172.401C482.267 173.37 482.338 174.357 482.611 175.296L488.591 197.459C489.17 199.462 490.464 201.184 492.226 202.297C493.989 203.411 496.098 203.839 498.156 203.502Z" fill="#96D959"/>
<path d="M543.703 195.39L566.231 191.294C567.197 191.139 568.119 190.78 568.935 190.241C569.751 189.701 570.442 188.994 570.964 188.167C571.485 187.339 571.824 186.41 571.958 185.441C572.092 184.472 572.018 183.485 571.74 182.547L565.781 160.405C565.223 158.391 563.945 156.652 562.189 155.519C560.433 154.386 558.322 153.938 556.257 154.26L533.729 158.357C532.764 158.509 531.843 158.866 531.026 159.403C530.209 159.94 529.517 160.644 528.993 161.47C528.47 162.295 528.129 163.223 527.992 164.191C527.855 165.158 527.926 166.144 528.2 167.082L534.18 189.245C534.73 191.264 536.006 193.009 537.764 194.143C539.522 195.277 541.638 195.722 543.703 195.39Z" fill="#96D959"/>
<path d="M468.992 272.592L491.52 268.495C492.488 268.343 493.411 267.986 494.23 267.448C495.048 266.91 495.742 266.203 496.266 265.375C496.789 264.547 497.13 263.617 497.265 262.647C497.4 261.676 497.327 260.689 497.05 259.749L491.07 237.607C490.516 235.59 489.238 233.848 487.481 232.715C485.725 231.581 483.611 231.135 481.546 231.462L459.018 235.456C458.052 235.611 457.13 235.97 456.314 236.509C455.497 237.048 454.804 237.755 454.281 238.582C453.759 239.409 453.417 240.338 453.281 241.307C453.144 242.276 453.215 243.263 453.489 244.202L459.469 266.365C460.01 268.394 461.281 270.152 463.039 271.302C464.796 272.451 466.916 272.91 468.992 272.592Z" fill="#96D959"/>
<path d="M514.581 264.481L537.109 260.384C538.074 260.229 538.996 259.87 539.812 259.331C540.628 258.792 541.32 258.085 541.841 257.257C542.362 256.429 542.701 255.5 542.835 254.531C542.969 253.562 542.895 252.576 542.618 251.638L536.576 229.577C536.018 227.563 534.74 225.824 532.984 224.691C531.228 223.558 529.118 223.11 527.053 223.432L504.525 227.426C503.559 227.582 502.637 227.941 501.82 228.48C501.004 229.019 500.311 229.725 499.788 230.552C499.265 231.379 498.924 232.308 498.787 233.277C498.651 234.246 498.722 235.233 498.995 236.173L504.955 258.336C505.514 260.37 506.808 262.125 508.586 263.26C510.364 264.395 512.5 264.83 514.581 264.481Z" fill="#96D959"/>
<path d="M560.148 256.369L582.676 252.273C583.644 252.12 584.568 251.763 585.386 251.225C586.205 250.687 586.899 249.98 587.422 249.152C587.946 248.324 588.286 247.394 588.422 246.424C588.557 245.454 588.483 244.466 588.206 243.526L582.226 221.384C581.672 219.371 580.398 217.633 578.646 216.5C576.893 215.366 574.785 214.918 572.723 215.239L550.195 219.335C549.229 219.49 548.308 219.849 547.492 220.389C546.676 220.928 545.984 221.635 545.463 222.462C544.942 223.29 544.603 224.219 544.469 225.188C544.335 226.157 544.409 227.144 544.686 228.082L550.646 250.224C551.203 252.234 552.478 253.97 554.23 255.103C555.981 256.235 558.087 256.686 560.148 256.369Z" fill="#96D959"/>
<path d="M485.376 333.571L507.904 329.474C508.872 329.322 509.795 328.965 510.614 328.427C511.432 327.888 512.126 327.182 512.65 326.354C513.173 325.526 513.514 324.596 513.649 323.625C513.784 322.655 513.711 321.667 513.434 320.728L507.474 298.585C506.916 296.571 505.638 294.832 503.882 293.699C502.126 292.567 500.015 292.118 497.951 292.44L475.423 296.537C474.458 296.69 473.536 297.047 472.719 297.583C471.903 298.12 471.21 298.825 470.687 299.65C470.164 300.476 469.822 301.403 469.685 302.371C469.549 303.339 469.619 304.325 469.893 305.263L475.853 327.426C476.411 329.44 477.689 331.179 479.445 332.312C481.201 333.445 483.312 333.893 485.376 333.571Z" fill="#96D959"/>
<path d="M531.026 325.46L553.554 321.363C554.522 321.211 555.445 320.853 556.264 320.315C557.082 319.777 557.776 319.07 558.3 318.242C558.823 317.415 559.164 316.484 559.299 315.514C559.434 314.544 559.361 313.556 559.084 312.617L553.103 290.474C552.546 288.46 551.267 286.721 549.512 285.588C547.756 284.455 545.645 284.007 543.58 284.329L521.052 288.426C520.086 288.581 519.164 288.94 518.348 289.479C517.531 290.018 516.838 290.725 516.315 291.552C515.793 292.379 515.451 293.308 515.315 294.277C515.178 295.246 515.249 296.233 515.523 297.172L521.503 319.315C522.061 321.329 523.339 323.067 525.095 324.2C526.851 325.333 528.961 325.782 531.026 325.46Z" fill="#96D959"/>
<path d="M576.573 317.348L599.101 313.251C600.066 313.093 600.986 312.732 601.801 312.192C602.616 311.652 603.307 310.946 603.829 310.12C604.352 309.294 604.693 308.366 604.831 307.398C604.969 306.431 604.901 305.445 604.631 304.505L598.651 282.342C598.093 280.328 596.815 278.589 595.059 277.456C593.303 276.323 591.192 275.875 589.128 276.197L566.599 280.294C565.632 280.446 564.708 280.803 563.89 281.341C563.071 281.88 562.377 282.586 561.854 283.414C561.33 284.242 560.99 285.172 560.854 286.142C560.719 287.113 560.793 288.101 561.07 289.04L567.071 311.346C567.653 313.332 568.939 315.038 570.689 316.142C572.438 317.247 574.53 317.676 576.573 317.348Z" fill="#96D959"/>
<g opacity="0.4">
<path d="M491.52 84.7805L616.981 352.129C614.595 354.598 611.479 356.235 608.092 356.799L602.194 357.864L475.28 87.6482L491.52 84.7805Z" fill="white"/>
<path d="M420.106 85.0877L448.512 80.0284C449.441 79.8625 450.399 80.0226 451.224 80.4817C452.048 80.9408 452.689 81.6706 453.038 82.5478L453.386 83.4081C454.26 85.4586 455.778 87.168 457.711 88.277C459.644 89.386 461.886 89.8341 464.097 89.5531L590.909 359.769L532.705 370.134L407.019 102.417C406.53 98.395 407.621 94.3403 410.062 91.1075C412.503 87.8747 416.105 85.7164 420.106 85.0877Z" fill="white"/>
</g>
<path d="M145.858 207.045L144.691 213.027H154.931L154.071 217.123H143.831L142.213 225.317H137.093L141.537 203.072H158.351L157.491 207.168L145.858 207.045Z" fill="white"/>
<path d="M158.925 217.758C158.936 216.953 159.025 216.15 159.191 215.362L161.669 202.908H166.851L164.373 215.198C164.24 215.81 164.172 216.435 164.168 217.062C164.168 219.766 165.704 221.158 168.469 221.158C171.582 221.158 173.384 219.438 174.244 215.28L176.722 202.99H181.781L179.262 215.669C177.93 222.244 174.162 225.624 167.895 225.624C162.304 225.542 158.925 222.551 158.925 217.758Z" fill="white"/>
<path d="M207.299 202.908L202.854 225.153H198.656L190.464 211.224L187.658 225.153H182.456L186.9 202.908H191.16L199.352 216.857L202.117 202.908H207.299Z" fill="white"/>
<path d="M208.896 215.874C208.856 214.069 209.191 212.275 209.877 210.605C210.564 208.936 211.589 207.427 212.888 206.172C214.186 204.918 215.73 203.946 217.422 203.317C219.114 202.688 220.918 202.416 222.72 202.519C224.386 202.39 226.058 202.685 227.58 203.376C229.102 204.068 230.424 205.132 231.424 206.472L227.697 209.524C227.109 208.656 226.304 207.958 225.363 207.498C224.422 207.038 223.376 206.832 222.331 206.902C221.214 206.9 220.109 207.127 219.083 207.568C218.057 208.008 217.132 208.654 216.365 209.466C215.598 210.277 215.005 211.237 214.622 212.286C214.239 213.335 214.075 214.452 214.139 215.566C214.139 218.926 216.351 221.158 220.283 221.158C221.394 221.179 222.496 220.96 223.515 220.514C224.533 220.069 225.442 219.408 226.181 218.577L229.233 221.691C228.054 222.996 226.598 224.02 224.971 224.686C223.344 225.353 221.588 225.645 219.832 225.542C212.992 225.542 208.896 221.589 208.896 215.874Z" fill="white"/>
<path d="M239.411 207.107H232.305L233.165 202.908H252.539L251.679 207.107H244.593L240.968 225.153H235.827L239.411 207.107Z" fill="white"/>
<path d="M255.304 202.908H260.485L256 225.153H250.819L255.304 202.908Z" fill="white"/>
<path d="M261.98 215.874C261.938 214.073 262.268 212.284 262.951 210.617C263.633 208.951 264.652 207.443 265.944 206.189C267.236 204.935 268.774 203.962 270.46 203.33C272.146 202.698 273.945 202.422 275.743 202.519C282.522 202.519 286.577 206.472 286.577 212.187C286.619 213.985 286.289 215.773 285.608 217.438C284.927 219.103 283.91 220.61 282.62 221.864C281.329 223.117 279.795 224.091 278.111 224.724C276.427 225.357 274.631 225.635 272.835 225.542C266.056 225.542 261.98 221.589 261.98 215.874ZM281.375 212.474C281.406 211.683 281.264 210.896 280.958 210.166C280.652 209.437 280.19 208.784 279.604 208.252C279.018 207.721 278.323 207.325 277.567 207.092C276.812 206.858 276.014 206.794 275.231 206.902C274.112 206.9 273.005 207.127 271.978 207.569C270.951 208.011 270.025 208.659 269.257 209.473C268.49 210.287 267.897 211.249 267.515 212.3C267.134 213.352 266.972 214.47 267.039 215.587C267.004 216.378 267.143 217.168 267.448 217.899C267.753 218.63 268.215 219.285 268.802 219.817C269.388 220.349 270.085 220.745 270.842 220.977C271.6 221.209 272.399 221.271 273.183 221.158C274.301 221.16 275.408 220.933 276.435 220.491C277.463 220.049 278.389 219.401 279.156 218.588C279.924 217.774 280.517 216.812 280.898 215.76C281.28 214.709 281.442 213.59 281.375 212.474Z" fill="white"/>
<path d="M312.975 202.908L308.511 225.153H304.292L295.997 211.224L293.212 225.153H288.113L292.557 202.908H296.817L305.009 216.857L307.773 202.908H312.975Z" fill="white"/>
<path d="M312.627 223.063L314.675 219.09C316.825 220.608 319.396 221.417 322.028 221.404C324.854 221.404 326.636 220.421 326.636 218.803C326.636 215.239 315.597 217.144 315.597 210.056C315.597 205.489 319.693 202.519 325.837 202.519C328.53 202.437 331.193 203.096 333.537 204.424L331.592 208.377C329.763 207.198 327.622 206.599 325.448 206.656C322.458 206.656 320.717 207.803 320.717 209.381C320.717 213.047 331.735 211.142 331.735 217.963C331.735 222.572 327.639 225.542 321.495 225.542C318.36 225.602 315.277 224.74 312.627 223.063Z" fill="white"/>
<path d="M186.716 135.989V190.331H176.476L149.299 157.332V190.331H136.888V135.989H147.292L174.305 168.967V135.989H186.716Z" fill="white"/>
<path d="M241.664 180.253V190.351H199.598V135.989H240.661V146.067H211.989V157.865H237.22V167.656H212.091V180.253H241.664Z" fill="white"/>
<path d="M333.025 135.989L315.249 190.331H301.752L289.792 153.461L277.504 190.331H264.09L246.231 135.989H259.277L271.565 174.17L284.365 135.989H295.998L308.429 174.477L321.086 135.989H333.025Z" fill="white"/>
<path d="M148.214 265.423C148.202 266.454 147.885 267.459 147.303 268.31C146.721 269.161 145.9 269.821 144.943 270.206C143.987 270.592 142.938 270.685 141.928 270.475C140.919 270.265 139.994 269.761 139.27 269.026C138.547 268.291 138.057 267.358 137.863 266.345C137.669 265.333 137.779 264.285 138.179 263.334C138.579 262.384 139.251 261.573 140.112 261.004C140.972 260.436 141.981 260.134 143.012 260.138C143.702 260.138 144.385 260.275 145.022 260.542C145.658 260.809 146.235 261.199 146.72 261.691C147.204 262.183 147.585 262.766 147.842 263.407C148.098 264.047 148.225 264.733 148.214 265.423Z" fill="white"/>
<path d="M284.877 266.468H157.594V270.605H284.877V266.468Z" fill="white"/>
<path d="M143.012 292.031C145.885 292.031 148.214 289.701 148.214 286.828C148.214 283.955 145.885 281.625 143.012 281.625C140.139 281.625 137.81 283.955 137.81 286.828C137.81 289.701 140.139 292.031 143.012 292.031Z" fill="white"/>
<path d="M284.877 287.893H157.594V292.031H284.877V287.893Z" fill="white"/>
<path d="M148.214 308.581C148.218 309.616 147.915 310.629 147.342 311.491C146.77 312.353 145.955 313.026 145 313.423C144.045 313.821 142.993 313.926 141.978 313.726C140.963 313.525 140.03 313.027 139.299 312.295C138.567 311.563 138.069 310.631 137.869 309.616C137.668 308.601 137.773 307.549 138.171 306.593C138.569 305.638 139.241 304.823 140.103 304.25C140.965 303.678 141.978 303.374 143.012 303.378C144.392 303.378 145.715 303.927 146.69 304.902C147.666 305.878 148.214 307.201 148.214 308.581Z" fill="white"/>
<path d="M283.73 309.646H157.594V313.784H283.73V309.646Z" fill="white"/>
<path d="M555.719 352.867L555.383 354.366L618.974 368.617L619.31 367.118L555.719 352.867Z" fill="#263238"/>
<path d="M668.57 381.236H628.736C627.302 381.299 625.871 381.071 624.528 380.565C623.184 380.06 621.957 379.288 620.921 378.295C619.884 377.303 619.059 376.111 618.495 374.791C617.931 373.471 617.641 372.05 617.641 370.615C617.641 369.18 617.931 367.759 618.495 366.439C619.059 365.119 619.884 363.927 620.921 362.935C621.957 361.942 623.184 361.17 624.528 360.665C625.871 360.159 627.302 359.931 628.736 359.994H668.652C671.387 360.115 673.971 361.286 675.864 363.265C677.758 365.243 678.814 367.876 678.814 370.615C678.814 373.354 677.758 375.987 675.864 377.965C673.971 379.944 671.387 381.115 668.652 381.236H668.57ZM628.736 361.531C627.507 361.472 626.279 361.664 625.126 362.094C623.973 362.524 622.92 363.184 622.029 364.033C621.139 364.883 620.43 365.904 619.946 367.035C619.461 368.166 619.212 369.384 619.212 370.615C619.212 371.846 619.461 373.063 619.946 374.195C620.43 375.326 621.139 376.347 622.029 377.197C622.92 378.046 623.973 378.706 625.126 379.136C626.279 379.566 627.507 379.758 628.736 379.699H668.652C670.986 379.588 673.188 378.583 674.801 376.891C676.414 375.2 677.313 372.952 677.313 370.615C677.313 368.278 676.414 366.03 674.801 364.339C673.188 362.647 670.986 361.642 668.652 361.531H628.736Z" fill="#263238"/>
<path d="M561.255 353.665C561.255 354.783 560.923 355.876 560.302 356.806C559.681 357.736 558.798 358.46 557.765 358.888C556.732 359.316 555.596 359.428 554.499 359.21C553.403 358.992 552.396 358.453 551.605 357.663C550.815 356.872 550.276 355.865 550.058 354.768C549.84 353.671 549.952 352.535 550.38 351.502C550.808 350.469 551.532 349.586 552.462 348.964C553.391 348.343 554.484 348.012 555.602 348.012C557.101 348.012 558.539 348.607 559.599 349.667C560.659 350.728 561.255 352.166 561.255 353.665Z" fill="#263238"/>
<path d="M443.774 277.234L442.639 278.269L481.504 320.913L482.639 319.878L443.774 277.234Z" fill="#263238"/>
<path d="M433.357 290.863H393.441C390.622 290.863 387.919 289.743 385.925 287.749C383.932 285.756 382.812 283.052 382.812 280.232C382.812 277.413 383.932 274.709 385.925 272.715C387.919 270.721 390.622 269.601 393.441 269.601H433.357C436.176 269.601 438.879 270.721 440.873 272.715C442.866 274.709 443.986 277.413 443.986 280.232C443.986 283.052 442.866 285.756 440.873 287.749C438.879 289.743 436.176 290.863 433.357 290.863ZM393.441 271.138C391.03 271.138 388.717 272.096 387.012 273.801C385.306 275.507 384.348 277.82 384.348 280.232C384.348 282.644 385.306 284.958 387.012 286.663C388.717 288.369 391.03 289.327 393.441 289.327H433.357C435.769 289.327 438.081 288.369 439.787 286.663C441.492 284.958 442.45 282.644 442.45 280.232C442.45 277.82 441.492 275.507 439.787 273.801C438.081 272.096 435.769 271.138 433.357 271.138H393.441Z" fill="#263238"/>
<path d="M476.426 320.359C476.426 321.477 476.758 322.57 477.379 323.5C478 324.43 478.883 325.154 479.916 325.582C480.949 326.01 482.085 326.122 483.181 325.904C484.278 325.686 485.285 325.147 486.076 324.357C486.866 323.566 487.405 322.559 487.623 321.462C487.841 320.365 487.729 319.229 487.301 318.196C486.873 317.163 486.149 316.28 485.219 315.658C484.29 315.037 483.197 314.706 482.079 314.706C480.58 314.706 479.142 315.301 478.082 316.362C477.022 317.422 476.426 318.86 476.426 320.359Z" fill="#263238"/>
<path d="M599.859 131.034L561.024 173.705L562.16 174.739L600.995 132.068L599.859 131.034Z" fill="#263238"/>
<path d="M650.219 144.653H610.304C607.568 144.533 604.984 143.362 603.091 141.383C601.198 139.404 600.141 136.771 600.141 134.033C600.141 131.294 601.198 128.661 603.091 126.682C604.984 124.704 607.568 123.532 610.304 123.412H650.219C651.653 123.349 653.085 123.577 654.428 124.082C655.771 124.588 656.998 125.36 658.035 126.352C659.072 127.345 659.897 128.537 660.461 129.857C661.024 131.177 661.315 132.597 661.315 134.033C661.315 135.468 661.024 136.889 660.461 138.208C659.897 139.528 659.072 140.721 658.035 141.713C656.998 142.705 655.771 143.478 654.428 143.983C653.085 144.488 651.653 144.716 650.219 144.653ZM610.304 124.948C607.969 125.059 605.767 126.065 604.155 127.756C602.542 129.448 601.642 131.695 601.642 134.033C601.642 136.37 602.542 138.618 604.155 140.309C605.767 142.001 607.969 143.006 610.304 143.117H650.219C651.448 143.175 652.677 142.984 653.829 142.554C654.982 142.123 656.036 141.464 656.926 140.614C657.817 139.765 658.525 138.744 659.01 137.612C659.494 136.481 659.744 135.263 659.744 134.033C659.744 132.802 659.494 131.584 659.01 130.453C658.525 129.322 657.817 128.3 656.926 127.451C656.036 126.602 654.982 125.942 653.829 125.512C652.677 125.082 651.448 124.89 650.219 124.948H610.304Z" fill="#263238"/>
<path d="M567.296 174.108C567.296 175.226 566.965 176.319 566.344 177.249C565.722 178.179 564.84 178.903 563.807 179.331C562.774 179.759 561.637 179.871 560.541 179.653C559.444 179.435 558.437 178.896 557.647 178.106C556.856 177.315 556.318 176.308 556.1 175.211C555.882 174.114 555.994 172.978 556.422 171.945C556.849 170.912 557.574 170.029 558.503 169.408C559.433 168.786 560.526 168.455 561.644 168.455C563.143 168.455 564.581 169.05 565.641 170.111C566.701 171.171 567.296 172.609 567.296 174.108Z" fill="#263238"/>
<path d="M384.06 98.1394L382.858 99.0957L457.568 193.034L458.77 192.078L384.06 98.1394Z" fill="#263238"/>
<path d="M373.596 109.279H333.68C330.945 109.158 328.361 107.987 326.468 106.008C324.575 104.03 323.518 101.397 323.518 98.6579C323.518 95.9192 324.575 93.2862 326.468 91.3076C328.361 89.329 330.945 88.1575 333.68 88.0373H373.596C375.03 87.9744 376.461 88.2024 377.805 88.7077C379.148 89.213 380.375 89.9852 381.412 90.9776C382.448 91.97 383.274 93.1622 383.837 94.4822C384.401 95.8021 384.692 97.2226 384.692 98.6579C384.692 100.093 384.401 101.514 383.837 102.834C383.274 104.154 382.448 105.346 381.412 106.338C380.375 107.331 379.148 108.103 377.805 108.608C376.461 109.113 375.03 109.342 373.596 109.279ZM333.68 89.5736C331.346 89.6845 329.144 90.69 327.531 92.3815C325.919 94.073 325.019 96.3206 325.019 98.6579C325.019 100.995 325.919 103.243 327.531 104.934C329.144 106.626 331.346 107.631 333.68 107.742H373.596C374.825 107.801 376.053 107.609 377.206 107.179C378.359 106.749 379.412 106.089 380.303 105.24C381.193 104.39 381.902 103.369 382.387 102.238C382.871 101.106 383.121 99.8886 383.121 98.6579C383.121 97.4273 382.871 96.2094 382.387 95.0781C381.902 93.9468 381.193 92.9256 380.303 92.0763C379.412 91.227 378.359 90.5673 377.206 90.1371C376.053 89.7069 374.825 89.5152 373.596 89.5736H333.68Z" fill="#263238"/>
<path d="M452.608 192.543C452.608 193.661 452.94 194.754 453.561 195.684C454.182 196.614 455.065 197.338 456.098 197.766C457.13 198.194 458.267 198.306 459.363 198.088C460.46 197.87 461.467 197.331 462.258 196.541C463.048 195.75 463.586 194.743 463.805 193.646C464.023 192.549 463.911 191.413 463.483 190.38C463.055 189.347 462.331 188.464 461.401 187.843C460.471 187.221 459.379 186.89 458.261 186.89C457.518 186.887 456.781 187.031 456.094 187.315C455.407 187.598 454.783 188.014 454.258 188.54C453.732 189.065 453.316 189.689 453.033 190.377C452.75 191.064 452.605 191.8 452.608 192.543Z" fill="#263238"/>
<path d="M706.56 312.842L687.452 312.432C687.452 312.432 674.324 307.905 672.788 308.827L666.296 309.319C664.968 310.125 663.974 311.381 663.493 312.858C663.012 314.335 663.076 315.935 663.674 317.369L665.722 321.936C666.191 323.088 667.04 324.044 668.129 324.644C669.217 325.244 670.479 325.453 671.703 325.234L688.25 323.022L708.587 322.776L706.56 312.842Z" fill="#EEC1BB"/>
<path d="M801.178 267.758C801.178 267.758 792.986 260.384 777.687 270.974C763.536 280.826 743.895 300.879 736.727 301.699L695.604 309.892V325.972C695.604 325.972 724.378 324.19 736.809 323.309C751.309 322.244 766.116 311.142 772.997 303.153C781.333 293.608 798.72 277.057 801.178 267.758Z" fill="#96D959"/>
<path opacity="0.7" d="M801.178 267.758C801.178 267.758 792.986 260.384 777.687 270.974C763.536 280.826 743.895 300.879 736.727 301.699L695.604 309.892V325.972C695.604 325.972 724.378 324.19 736.809 323.309C751.309 322.244 766.116 311.142 772.997 303.153C781.333 293.608 798.72 277.057 801.178 267.758Z" fill="white"/>
<path opacity="0.1" d="M743.096 322.284C755.384 319.151 767.201 309.994 773.099 303.174C780.448 294.575 785.811 284.462 788.808 273.555C788.808 273.555 755.712 308.09 743.096 322.284Z" fill="black"/>
<path d="M886.804 705.323L898.253 701.39L897.085 681.623L895.119 663.557L877.158 665.544L882.258 686.601L886.804 705.323Z" fill="#FFC3BD"/>
<path d="M876.053 732.627C877.505 730.672 879.303 728.999 881.357 727.69C881.357 727.69 886.334 719.354 884.429 698.563L892.621 694.036C894.019 693.305 895.607 693.017 897.173 693.21C898.739 693.404 900.209 694.071 901.386 695.122C901.716 695.417 902.005 695.755 902.246 696.126C903.215 698.121 904.063 700.173 904.786 702.27C907.145 709.453 909.066 716.772 910.541 724.188L908.964 724.638L904.868 711.017C903.516 706.367 901.243 712.819 901.509 718.104C901.775 723.389 900.956 729.329 890.757 732.197C878.858 735.515 873.759 736.314 876.053 732.627Z" fill="#263238"/>
<path d="M884.142 691.005C884.142 691.005 884.633 700.612 884.244 711.488C884.324 717.017 883.344 722.51 881.356 727.67C881.356 727.67 889.385 727.076 891.392 721.054C893.399 715.032 893.44 696.249 901.427 695.163C900.487 694.029 899.423 693.005 898.252 692.111C896.389 690.677 884.142 691.005 884.142 691.005Z" fill="#FFC3BD"/>
<path d="M769.618 707.965L781.701 707.453L786.227 688.178L789.504 670.317L771.727 667.08L770.601 688.711L769.618 707.965Z" fill="#FFC3BD"/>
<path d="M751.616 731.05C753.569 729.596 755.768 728.507 758.108 727.834C758.108 727.834 765.276 721.279 769.372 700.796L778.506 698.747C780.053 698.441 781.656 698.614 783.102 699.243C784.547 699.873 785.766 700.929 786.596 702.27C786.828 702.651 787.001 703.066 787.108 703.5C787.482 705.688 787.715 707.897 787.804 710.116C788.012 717.675 787.759 725.241 787.046 732.77H785.408V718.534C785.408 713.7 781.435 719.231 780.185 724.352C778.936 729.472 776.458 734.962 765.849 734.798C753.377 734.634 748.257 733.938 751.616 731.05Z" fill="#263238"/>
<path d="M771.154 693.483C771.154 693.483 768.881 702.824 765.379 713.147C763.888 718.471 761.384 723.458 758.006 727.834C758.006 727.834 765.87 729.554 769.516 724.352C773.161 719.149 778.527 701.165 786.534 702.414C785.957 701.06 785.229 699.775 784.364 698.584C782.991 696.658 771.154 693.483 771.154 693.483Z" fill="#FFC3BD"/>
<path d="M768.123 552.66L770.826 682.832L786.842 684.491C786.842 684.491 799.13 638.014 801.874 591.333C802.509 580.559 799.949 568.023 801.137 559.522C802.181 552.066 805.233 547.396 809.329 530.539C811.971 519.805 814.879 506.573 817.296 493.791C819.487 482.239 821.228 471.034 821.944 462.329C823.791 459.779 825.435 457.087 826.86 454.279C834.474 439.976 837.166 423.563 834.519 407.577L781.271 383.96L768.123 552.66Z" fill="#263238"/>
<path d="M783.36 380.642C783.36 380.642 758.129 511.387 758.006 577.118C758.006 622.591 757.801 645.962 757.76 655.405C757.75 657.051 758.068 658.683 758.693 660.205C759.319 661.728 760.241 663.111 761.405 664.274L771.359 674.209H789.32L801.505 667.244C803.458 666.143 805.073 664.528 806.174 662.575C807.275 660.621 807.82 658.404 807.752 656.163C807.26 636.396 806.195 582.873 808.858 567.204C812.155 547.888 824.443 439.736 824.32 428.101C824.197 416.467 830.116 370.379 783.36 380.642Z" fill="#263238"/>
<path d="M804.7 387.135C804.7 387.135 831.898 529.432 840.376 583.775C847.401 628.694 859.156 649.997 861.696 659.092C862.139 660.676 862.892 662.156 863.911 663.447C864.931 664.737 866.197 665.812 867.635 666.609L879.923 673.41L897.208 668.473L906.998 658.436C908.565 656.831 909.667 654.831 910.186 652.648C910.706 650.466 910.623 648.183 909.947 646.044C904.028 627.199 888.259 576.032 886.518 560.239C884.367 540.739 870.81 462.534 870.134 436.356C869.806 424.763 846.828 364.439 804.7 387.135Z" fill="#263238"/>
<path opacity="0.2" d="M812.319 434.246C812.606 435.639 814.367 468.023 815.8 498.523C816.271 497.11 816.763 495.512 817.254 493.75C819.446 482.198 821.187 470.993 821.903 462.288C823.75 459.738 825.394 457.046 826.819 454.238C828.723 445.697 830.403 438.159 831.468 433.755L812.319 434.246Z" fill="black"/>
<path d="M804.291 400.613L841.052 556.921L880.804 680.886L896.594 677.916C896.594 677.916 895.099 629.862 884.429 584.328C881.951 573.84 875.93 562.554 874.639 554.053C873.513 546.618 875.008 541.313 874.189 523.943C873.165 502.968 872.284 482.669 870.83 456.717C870.83 456.717 874.68 420.85 863.764 399.896L804.291 400.613Z" fill="#263238"/>
<path d="M774.881 288.917C773.791 299.127 773.743 309.422 774.738 319.642C775.311 333.366 778.281 347.807 782.029 370.031C789.545 374.435 827.556 372.612 851.886 369.458C850.411 349.998 852.828 327.733 866.017 283.899C869.089 273.76 862.249 263.989 851.374 262.965C848.445 262.678 845.353 262.432 842.199 262.309C831.091 261.551 819.945 261.551 808.837 262.309C805.273 262.617 801.444 263.047 797.839 263.518C784.896 265.198 777.257 275.173 774.881 288.917Z" fill="#96D959"/>
<path opacity="0.7" d="M774.881 288.917C773.791 299.127 773.743 309.422 774.738 319.642C775.311 333.366 778.281 347.807 782.029 370.031C789.545 374.435 827.556 372.612 851.886 369.458C850.411 349.998 852.828 327.733 866.017 283.899C869.089 273.76 862.249 263.989 851.374 262.965C848.445 262.678 845.353 262.432 842.199 262.309C831.091 261.551 819.945 261.551 808.837 262.309C805.273 262.617 801.444 263.047 797.839 263.518C784.896 265.198 777.257 275.173 774.881 288.917Z" fill="white"/>
<path d="M782.028 370.031L851.886 369.478L866.754 407.557L812.318 428.101L779.243 422.714L782.028 370.031Z" fill="#263238"/>
<path d="M781.865 374.845C806.01 377.525 830.381 377.449 854.508 374.619C854.949 374.512 855.332 374.24 855.58 373.859C855.827 373.479 855.92 373.018 855.839 372.571C855.848 372.496 855.848 372.421 855.839 372.346C855.245 370.932 854.631 369.519 854.057 368.106C853.941 367.79 853.723 367.522 853.437 367.344C853.152 367.166 852.815 367.088 852.48 367.123C828.904 369.723 805.114 369.723 781.538 367.123C780.657 367 780.432 367.573 780.329 368.454C780.284 370.602 780.497 372.748 780.964 374.845H781.865Z" fill="#96D959"/>
<path d="M815.207 256.595C813.527 256.635 811.873 257.019 810.348 257.724C808.823 258.428 807.458 259.438 806.339 260.691C804.118 263.247 802.52 266.283 801.669 269.561C799.674 275.815 799.971 282.576 802.509 288.63C805.233 286.213 807.383 284.206 810.087 281.789C813.738 284.045 817.125 286.704 820.183 289.716C827.109 283.347 832.863 275.811 837.182 267.451C837.887 266.382 838.365 265.179 838.587 263.918C838.809 262.657 838.77 261.363 838.472 260.118C837.448 257.434 834.376 256.226 831.529 255.632C826.409 254.669 820.449 256.615 815.207 256.595Z" fill="#96D959"/>
<path opacity="0.5" d="M815.207 256.595C813.527 256.635 811.873 257.019 810.348 257.724C808.823 258.428 807.458 259.438 806.339 260.691C804.118 263.247 802.52 266.283 801.669 269.561C799.674 275.815 799.971 282.576 802.509 288.63C805.233 286.213 807.383 284.206 810.087 281.789C813.738 284.045 817.125 286.704 820.183 289.716C827.109 283.347 832.863 275.811 837.182 267.451C837.887 266.382 838.365 265.179 838.587 263.918C838.809 262.657 838.77 261.363 838.472 260.118C837.448 257.434 834.376 256.226 831.529 255.632C826.409 254.669 820.449 256.615 815.207 256.595Z" fill="white"/>
<path d="M810.045 183.018C805.454 182.864 800.914 184.022 796.958 186.357C793.19 188.918 790.65 193.772 791.982 198.135C790.13 199.562 788.715 201.479 787.897 203.67C787.079 205.86 786.89 208.236 787.353 210.528C788.398 214.85 790.937 218.721 792.903 222.633C795.036 227.584 795.559 233.08 794.398 238.344C793.477 241.396 791.142 244.346 791.92 247.438C792.375 248.709 793.208 249.809 794.306 250.593C795.404 251.376 796.715 251.805 798.064 251.822C800.772 251.774 803.438 251.152 805.888 249.999C808.673 248.913 811.663 252.191 814.633 252.395C816.044 252.352 817.407 251.869 818.53 251.013C819.654 250.157 820.482 248.972 820.899 247.623C821.672 244.907 821.853 242.057 821.432 239.266C820.572 228.471 820.367 214.85 819.507 204.075C819.332 200.082 818.728 196.12 817.705 192.256C816.196 188.443 813.513 185.207 810.045 183.018Z" fill="#263238"/>
<path d="M833.536 228.717C832.102 236.398 830.73 248.872 833.126 257.23C833.795 259.722 833.649 262.362 832.709 264.766C831.77 267.169 830.086 269.208 827.904 270.585C823.423 273.441 818.78 276.033 813.998 278.348C813.223 278.703 812.341 278.748 811.534 278.474C810.726 278.2 810.054 277.627 809.656 276.873C808.368 274.636 807.986 271.99 808.587 269.48C809.189 266.969 810.73 264.784 812.892 263.375C815.411 261.777 816.128 252.99 814.51 246.845L833.536 228.717Z" fill="#FFC3BD"/>
<path opacity="0.2" d="M825.753 236.091L814.469 246.783C814.973 248.586 815.316 250.43 815.493 252.293C819.773 251.31 825.61 246.148 826.04 241.539C826.273 239.721 826.176 237.875 825.753 236.091Z" fill="black"/>
<path d="M840.458 207.803C838.758 224.313 838.41 231.318 829.685 239.88C816.701 252.703 797.02 248.073 793.784 231.687C790.876 216.898 794.173 192.4 810.496 185.661C813.949 184.064 817.768 183.424 821.554 183.809C825.339 184.193 828.952 185.587 832.014 187.846C835.076 190.105 837.475 193.145 838.961 196.649C840.446 200.152 840.963 203.99 840.458 207.762V207.803Z" fill="#FFC3BD"/>
<path d="M803.245 214.522C801.413 217.486 799.203 220.198 796.671 222.592C797.271 223.185 797.997 223.633 798.796 223.902C799.594 224.172 800.444 224.256 801.279 224.149L803.245 214.522Z" fill="#BA4D3C"/>
<path d="M807.321 230.233C806.554 230.256 805.786 230.208 805.028 230.089C804.928 230.074 804.838 230.021 804.777 229.94C804.716 229.86 804.688 229.759 804.7 229.659C804.728 229.553 804.793 229.46 804.883 229.396C804.973 229.332 805.082 229.302 805.191 229.311C806.909 229.551 808.659 229.402 810.311 228.874C811.964 228.345 813.476 227.452 814.735 226.259C814.771 226.222 814.814 226.193 814.862 226.173C814.909 226.154 814.96 226.143 815.012 226.143C815.063 226.143 815.114 226.154 815.161 226.173C815.209 226.193 815.252 226.222 815.288 226.259C815.327 226.293 815.359 226.336 815.38 226.384C815.402 226.431 815.413 226.483 815.413 226.535C815.413 226.588 815.402 226.639 815.38 226.687C815.359 226.735 815.327 226.777 815.288 226.812C813.151 228.905 810.31 230.125 807.321 230.233Z" fill="#263238"/>
<path d="M836.792 203.645C832.225 214.993 827.617 226.976 832.143 238.344C837.189 234.286 841.31 229.198 844.231 223.419C847.152 217.639 848.805 211.303 849.08 204.833C843.612 205.304 841.871 205.755 836.792 203.645Z" fill="#263238"/>
<path d="M836.792 203.645C832.225 214.993 827.617 226.976 832.143 238.344C837.189 234.286 841.31 229.198 844.231 223.419C847.152 217.639 848.805 211.303 849.08 204.833C843.612 205.304 841.871 205.755 836.792 203.645Z" fill="#263238"/>
<path d="M811.008 179.987C809.483 181.904 808.622 184.264 808.552 186.712C808.481 189.161 809.207 191.566 810.619 193.567C812.092 195.523 814.016 197.094 816.227 198.146C818.437 199.198 820.87 199.7 823.316 199.61C821.685 203.168 821.487 207.217 822.763 210.917C823.442 212.585 824.455 214.097 825.741 215.358C827.027 216.62 828.557 217.604 830.238 218.25C831.832 221.705 832.692 225.453 832.762 229.258C832.833 233.062 832.113 236.84 830.648 240.351C829.317 243.383 827.392 246.988 829.214 249.753C831.037 252.518 835.256 252.15 838.205 250.675C841.154 249.2 843.837 246.886 847.134 246.578C848.978 246.435 850.821 246.967 852.664 246.578C854.507 246.189 861.47 244.038 854.384 234.534C857.764 226.505 865.3 209.032 856.535 199.344C850.942 193.029 843.87 188.201 835.952 185.292C831.598 183.594 826.984 182.658 822.313 182.527C817.664 182.691 814.1 176.505 811.008 179.987Z" fill="#263238"/>
<path d="M840.847 224.333C840.127 225.75 839.117 226.998 837.882 227.997C836.646 228.996 835.214 229.723 833.679 230.13C829.849 230.99 828.354 226.586 829.808 222.285C831.16 218.414 834.662 213.313 838.328 214.419C841.994 215.525 842.833 220.605 840.847 224.333Z" fill="#FFC3BD"/>
<path d="M819.712 275.296C839.68 265.259 835.584 255.407 832.225 252.764C830.505 256.123 820.081 261.797 816.148 261.756C814.203 260.773 815.923 254.772 815.391 254.28C813.141 254.701 811.087 255.834 809.531 257.513C807.974 259.191 806.999 261.325 806.748 263.6C806.82 268.054 808.093 272.407 810.434 276.197C811.274 277.815 813.629 278.041 815.452 277.795L819.712 275.296Z" fill="#96D959"/>
<path d="M816.128 312.227C812.033 316.049 807.027 318.757 801.587 320.093C803.506 307.444 806.284 294.941 809.902 282.67C811.05 282.093 812.374 281.968 813.609 282.322L815.329 282.998L816.128 312.227Z" fill="#96D959"/>
<path d="M820.715 308.274C818.042 312.674 814.417 316.418 810.107 319.233C809.302 306.83 809.363 294.387 810.291 281.994C811.432 281.824 812.591 281.824 813.732 281.994L815.554 282.281L820.715 308.274Z" fill="#96D959"/>
<path opacity="0.1" d="M820.715 308.274C818.042 312.674 814.417 316.418 810.107 319.233C809.302 306.83 809.363 294.387 810.291 281.994C811.432 281.824 812.591 281.824 813.732 281.994L815.554 282.281L820.715 308.274Z" fill="white"/>
<path d="M820.654 274.866C819.035 273.336 816.969 272.363 814.759 272.09C812.548 271.818 810.308 272.259 808.366 273.35C807.934 276.702 808.371 280.109 809.636 283.243C811.827 283.12 813.732 283.714 816.005 283.612C817.152 280.396 817.991 276.934 820.654 274.866Z" fill="#96D959"/>
<path opacity="0.2" d="M820.654 274.866C819.035 273.336 816.969 272.363 814.759 272.09C812.548 271.818 810.308 272.259 808.366 273.35C807.934 276.702 808.371 280.109 809.636 283.243C811.827 283.12 813.732 283.714 816.005 283.612C817.152 280.396 817.991 276.934 820.654 274.866Z" fill="white"/>
<path d="M686.817 330.826C687.069 331.011 687.281 331.246 687.44 331.515C687.598 331.784 687.701 332.083 687.741 332.393C687.781 332.703 687.758 333.018 687.673 333.319C687.589 333.62 687.444 333.901 687.247 334.144C686.863 334.609 686.313 334.908 685.714 334.976C685.114 335.045 684.512 334.879 684.032 334.513L583.844 244.386C583.684 244.264 583.578 244.085 583.548 243.887C583.517 243.688 583.564 243.486 583.68 243.321C583.737 243.227 583.814 243.147 583.905 243.084C583.996 243.022 584.099 242.98 584.207 242.961C584.316 242.941 584.427 242.945 584.534 242.972C584.64 242.999 584.74 243.048 584.827 243.116L686.817 330.826Z" fill="#263238"/>
<g opacity="0.3">
<path d="M686.817 330.826C687.069 331.011 687.281 331.246 687.44 331.515C687.598 331.784 687.701 332.083 687.741 332.393C687.781 332.703 687.758 333.018 687.673 333.319C687.589 333.62 687.444 333.901 687.247 334.144C686.863 334.609 686.313 334.908 685.714 334.976C685.114 335.045 684.512 334.879 684.032 334.513L583.844 244.386C583.684 244.264 583.578 244.085 583.548 243.887C583.517 243.688 583.564 243.486 583.68 243.321C583.737 243.227 583.814 243.147 583.905 243.084C583.996 243.022 584.099 242.98 584.207 242.961C584.316 242.941 584.427 242.945 584.534 242.972C584.64 242.999 584.74 243.048 584.827 243.116L686.817 330.826Z" fill="white"/>
</g>
<path d="M766.075 307.946L770.171 346.168C770.269 346.889 770.623 347.55 771.168 348.031C771.713 348.513 772.413 348.782 773.14 348.79L832.409 348.565C832.747 348.574 833.083 348.509 833.393 348.376C833.703 348.242 833.981 348.043 834.207 347.792C834.433 347.541 834.601 347.243 834.701 346.921C834.801 346.598 834.83 346.257 834.785 345.922L830.689 307.7C830.591 306.98 830.237 306.319 829.692 305.837C829.147 305.356 828.447 305.087 827.719 305.079L768.45 305.304C768.113 305.295 767.777 305.36 767.467 305.493C767.156 305.626 766.879 305.826 766.653 306.077C766.427 306.328 766.258 306.625 766.158 306.948C766.059 307.271 766.03 307.611 766.075 307.946Z" fill="#263238"/>
<path d="M830.525 305.816L830.709 307.598C830.616 306.879 830.266 306.218 829.724 305.736C829.183 305.255 828.485 304.985 827.76 304.976L768.491 305.201C768.153 305.196 767.817 305.263 767.506 305.399C767.196 305.534 766.919 305.736 766.693 305.988C766.468 306.241 766.299 306.54 766.2 306.863C766.1 307.187 766.071 307.528 766.116 307.864L765.911 306.062C765.867 305.726 765.895 305.384 765.995 305.061C766.095 304.737 766.263 304.439 766.488 304.186C766.714 303.933 766.991 303.732 767.302 303.596C767.612 303.46 767.948 303.393 768.286 303.399L827.556 303.174C828.286 303.182 828.988 303.455 829.534 303.94C830.079 304.425 830.431 305.092 830.525 305.816Z" fill="#263238"/>
<path opacity="0.7" d="M830.525 305.816L830.709 307.598C830.616 306.879 830.266 306.218 829.724 305.736C829.183 305.255 828.485 304.985 827.76 304.976L768.491 305.201C768.153 305.196 767.817 305.263 767.506 305.399C767.196 305.534 766.919 305.736 766.693 305.988C766.468 306.241 766.299 306.54 766.2 306.863C766.1 307.187 766.071 307.528 766.116 307.864L765.911 306.062C765.867 305.726 765.895 305.384 765.995 305.061C766.095 304.737 766.263 304.439 766.488 304.186C766.714 303.933 766.991 303.732 767.302 303.596C767.612 303.46 767.948 303.393 768.286 303.399L827.556 303.174C828.286 303.182 828.988 303.455 829.534 303.94C830.079 304.425 830.431 305.092 830.525 305.816Z" fill="white"/>
<path d="M798.72 331.686C800.891 331.686 802.652 329.926 802.652 327.754C802.652 325.582 800.891 323.821 798.72 323.821C796.548 323.821 794.788 325.582 794.788 327.754C794.788 329.926 796.548 331.686 798.72 331.686Z" fill="white"/>
<path d="M869.764 282.834C870.183 284.704 870.41 286.612 870.44 288.528L871.69 343.485C871.812 348.77 868.781 354.28 859.135 354.177L817.151 345.677L800.767 345.349C800.064 345.323 799.375 345.146 798.747 344.828C798.119 344.511 797.568 344.062 797.13 343.511C796.692 342.96 796.378 342.321 796.211 341.638C796.043 340.954 796.026 340.243 796.159 339.552L797.777 331.113C797.988 330.031 798.558 329.053 799.394 328.335C800.231 327.618 801.284 327.204 802.385 327.16L806.727 326.975C807.466 326.949 808.202 327.09 808.88 327.388C809.557 327.686 810.158 328.133 810.639 328.696L819.814 335.926L855.244 335.066C857.087 335.476 841.789 265.812 851.025 263.743C854.282 263.067 865.894 265.505 869.764 282.834Z" fill="#EEC1BB"/>
<path d="M813.22 213.027C813.118 214.399 812.299 215.526 811.418 215.526C810.537 215.526 809.902 214.378 810.004 212.986C810.107 211.593 810.926 210.466 811.807 210.487C812.688 210.507 813.323 211.675 813.22 213.027Z" fill="#263238"/>
<path d="M798.966 212.637C798.864 214.03 798.065 215.157 797.184 215.136C796.303 215.116 795.668 213.989 795.771 212.617C795.873 211.245 796.672 210.118 797.573 210.118C798.474 210.118 799.089 211.244 798.966 212.637Z" fill="#263238"/>
<path d="M797.942 210.2L794.767 209.196C794.767 209.196 796.242 211.838 797.942 210.2Z" fill="#263238"/>
<path d="M818.217 206.574C818.113 206.56 818.013 206.524 817.924 206.467C817.836 206.411 817.761 206.335 817.705 206.247C817.186 205.407 816.468 204.709 815.614 204.216C814.759 203.723 813.796 203.449 812.81 203.42C812.618 203.431 812.429 203.367 812.283 203.24C812.138 203.114 812.047 202.936 812.032 202.744C812.042 202.524 812.133 202.316 812.289 202.161C812.444 202.006 812.652 201.914 812.871 201.904C814.109 201.928 815.32 202.264 816.394 202.879C817.468 203.495 818.369 204.371 819.015 205.427C819.121 205.613 819.15 205.832 819.097 206.038C819.043 206.245 818.911 206.423 818.729 206.533C818.568 206.604 818.387 206.619 818.217 206.574Z" fill="#263238"/>
<path d="M794.337 205.55C794.24 205.568 794.141 205.566 794.044 205.544C793.948 205.523 793.857 205.482 793.777 205.425C793.697 205.367 793.629 205.295 793.578 205.211C793.526 205.127 793.492 205.033 793.477 204.936C793.459 204.818 793.468 204.698 793.503 204.584C793.539 204.47 793.6 204.366 793.682 204.28C794.448 203.217 795.449 202.344 796.607 201.729C797.765 201.115 799.048 200.775 800.358 200.737C800.557 200.752 800.743 200.844 800.876 200.993C801.01 201.141 801.081 201.336 801.075 201.535C801.054 201.753 800.952 201.954 800.788 202.098C800.625 202.243 800.413 202.32 800.194 202.314C799.16 202.353 798.148 202.628 797.236 203.118C796.324 203.608 795.535 204.3 794.931 205.14C794.865 205.245 794.778 205.335 794.676 205.406C794.574 205.476 794.459 205.525 794.337 205.55Z" fill="#263238"/>
<path d="M812.196 210.61L809.021 209.606C809.021 209.606 810.496 212.228 812.196 210.61Z" fill="#263238"/>
<path d="M840.274 348.749L822.292 343.608V343.587L840.274 348.749Z" fill="#EEC1BB"/>
<path opacity="0.1" d="M848.322 281.871L851.968 348.749C851.968 348.749 854.302 323.718 859.177 295.615C859.136 295.615 861.122 272.428 848.322 281.871Z" fill="black"/>
<path d="M819.814 335.926L855.245 335.066C857.088 335.476 841.789 265.812 851.026 263.743C854.282 263.026 865.894 265.464 869.765 282.793C870.184 284.663 870.41 286.571 870.441 288.487L871.69 343.444C871.813 348.728 868.782 354.238 859.136 354.136L817.152 345.676L819.814 335.926Z" fill="#96D959"/>
<g opacity="0.8">
<path d="M819.814 335.926L855.245 335.066C857.088 335.476 841.789 265.812 851.026 263.743C854.282 263.026 865.894 265.464 869.765 282.793C870.184 284.663 870.41 286.571 870.441 288.487L871.69 343.444C871.813 348.728 868.782 354.238 859.136 354.136L817.152 345.676L819.814 335.926Z" fill="white"/>
</g>
<path d="M189.112 621.935C189.112 621.935 168.018 605.323 150.59 621.177L157.614 622.099L147.128 624.844C145.676 626.618 144.362 628.502 143.196 630.477C141.66 633.037 140.268 635.413 138.936 637.666L145.941 639.12L135.168 644.159C124.17 663.557 122.327 669.456 122.327 669.456C129.341 669.446 136.336 668.705 143.196 667.244L149.34 651.124L150.61 665.36C158.118 663.209 165.184 659.742 171.479 655.118L168.735 640.78L177.111 650.202C181.867 645.224 185.328 639.154 187.187 632.525L182.436 627.957L188.027 629.104C188.557 626.743 188.919 624.347 189.112 621.935Z" fill="#96D959"/>
<path opacity="0.2" d="M189.112 621.935C189.112 621.935 168.018 605.323 150.59 621.177L157.614 622.099L147.128 624.844C145.676 626.618 144.362 628.502 143.196 630.477C141.66 633.037 140.268 635.413 138.936 637.666L145.941 639.12L135.168 644.159C124.17 663.557 122.327 669.456 122.327 669.456C129.341 669.446 136.336 668.705 143.196 667.244L149.34 651.124L150.61 665.36C158.118 663.209 165.184 659.742 171.479 655.118L168.735 640.78L177.111 650.202C181.867 645.224 185.328 639.154 187.187 632.525L182.436 627.957L188.027 629.104C188.557 626.743 188.919 624.347 189.112 621.935Z" fill="white"/>
<path d="M230.564 609.481C230.564 609.481 257.782 588.015 280.31 608.518L271.258 609.706L284.775 613.25C286.667 615.533 288.372 617.965 289.874 620.522C291.922 623.819 293.663 626.912 295.363 629.821L286.311 631.706L300.196 638.219C314.409 663.27 316.785 670.89 316.785 670.89C307.726 670.874 298.693 669.913 289.833 668.022L281.825 647.273L280.207 665.708C270.507 662.973 261.373 658.526 253.235 652.578L256.778 633.979L245.944 646.146C239.8 639.717 235.334 631.873 232.94 623.307L239.084 617.429L231.875 618.903C231.209 615.799 230.771 612.65 230.564 609.481Z" fill="#96D959"/>
<path opacity="0.3" d="M230.564 609.481C230.564 609.481 257.782 588.015 280.31 608.518L271.258 609.706L284.775 613.25C286.667 615.533 288.372 617.965 289.874 620.522C291.922 623.819 293.663 626.912 295.363 629.821L286.311 631.706L300.196 638.219C314.409 663.27 316.785 670.89 316.785 670.89C307.726 670.874 298.693 669.913 289.833 668.022L281.825 647.273L280.207 665.708C270.507 662.973 261.373 658.526 253.235 652.578L256.778 633.979L245.944 646.146C239.8 639.717 235.334 631.873 232.94 623.307L239.084 617.429L231.875 618.903C231.209 615.799 230.771 612.65 230.564 609.481Z" fill="white"/>
<path d="M219.402 570.194C219.402 570.194 215.306 604.627 184.914 606.061L190.464 598.809L178.401 605.876C175.451 605.592 172.527 605.079 169.656 604.34C165.929 603.398 162.468 602.496 159.212 601.636L164.27 594.016L149.934 599.219C122.184 591.558 115.118 587.851 115.118 587.851C121.543 581.458 128.613 575.747 136.213 570.809L156.693 579.883L144.835 565.729C153.63 560.815 163.226 557.5 173.179 555.938L183.644 571.485L182.682 555.241C191.575 555.438 200.283 557.823 208.036 562.185L207.872 570.686L211.968 564.541C214.573 566.252 217.057 568.141 219.402 570.194Z" fill="#96D959"/>
<path opacity="0.5" d="M219.402 570.194C219.402 570.194 215.306 604.627 184.914 606.061L190.464 598.809L178.401 605.876C175.451 605.592 172.527 605.079 169.656 604.34C165.929 603.398 162.468 602.496 159.212 601.636L164.27 594.016L149.934 599.219C122.184 591.558 115.118 587.851 115.118 587.851C121.543 581.458 128.613 575.747 136.213 570.809L156.693 579.883L144.835 565.729C153.63 560.815 163.226 557.5 173.179 555.938L183.644 571.485L182.682 555.241C191.575 555.438 200.283 557.823 208.036 562.185L207.872 570.686L211.968 564.541C214.573 566.252 217.057 568.141 219.402 570.194Z" fill="white"/>
<path d="M153.067 637.216C153.067 637.216 199.659 571.669 214.61 668.268H209.265C209.265 668.268 204.185 624.045 186.368 620.747C168.55 617.449 153.067 637.216 153.067 637.216Z" fill="#96D959"/>
<path d="M268.616 625.192C268.616 625.192 223.683 534.389 209.224 668.207H214.364C214.364 668.207 219.259 606.88 236.38 602.312C253.501 597.744 268.616 625.192 268.616 625.192Z" fill="#96D959"/>
<path d="M161.936 584.881C161.936 584.881 230.093 574.373 219.402 669.6H224.748C224.748 669.6 237.937 574.721 161.936 584.881Z" fill="#96D959"/>
<path d="M199.414 725.826L186.839 663.66H248.873L236.319 725.826C235.561 729.513 230.748 732.279 225.382 732.279H210.33C204.964 732.279 200.151 729.513 199.414 725.826Z" fill="#263238"/>
<path d="M516.485 509.133L599.06 509.482L594.719 457.106L512.143 456.737L516.485 509.133Z" fill="#96D959"/>
<path d="M517.591 513.23L598.978 513.599C599.506 513.606 600.03 513.503 600.516 513.296C601.002 513.09 601.439 512.784 601.799 512.398C602.16 512.012 602.436 511.555 602.61 511.057C602.784 510.558 602.851 510.028 602.808 509.502L598.487 457.454C598.381 456.32 597.861 455.264 597.026 454.49C596.191 453.715 595.1 453.275 593.961 453.255L512.594 452.886C512.065 452.876 511.54 452.976 511.053 453.182C510.565 453.388 510.127 453.694 509.766 454.08C509.404 454.467 509.128 454.925 508.956 455.425C508.783 455.925 508.718 456.456 508.764 456.983L513.065 509.031C513.183 510.16 513.707 511.208 514.54 511.98C515.372 512.753 516.456 513.197 517.591 513.23Z" fill="#96D959"/>
<g opacity="0.7">
<path d="M516.485 509.133L599.06 509.482L594.719 457.106L512.143 456.737L516.485 509.133Z" fill="#96D959"/>
<path opacity="0.9" d="M520.192 509.133L594.616 509.461C595.179 509.463 595.736 509.348 596.253 509.124C596.77 508.901 597.235 508.573 597.619 508.162C598.003 507.75 598.299 507.264 598.487 506.734C598.675 506.203 598.752 505.639 598.712 505.078L595.026 460.875C594.934 459.853 594.462 458.904 593.703 458.214C592.945 457.523 591.955 457.143 590.93 457.147L516.567 456.778C516.002 456.777 515.443 456.892 514.925 457.117C514.407 457.341 513.941 457.671 513.556 458.084C513.172 458.498 512.877 458.987 512.69 459.52C512.503 460.053 512.429 460.619 512.471 461.182L516.137 505.426C516.233 506.437 516.702 507.376 517.451 508.061C518.2 508.746 519.177 509.128 520.192 509.133Z" fill="white"/>
</g>
<path opacity="0.1" d="M530.227 452.804L546.099 513.209L540.672 513.189L524.984 452.784L530.227 452.804Z" fill="white"/>
<path opacity="0.1" d="M521.851 452.763L537.723 513.169L526.951 513.128L511.284 452.722L521.851 452.763Z" fill="white"/>
<path d="M543.417 512.923L515.953 513.169C515.605 516.364 516.997 517.511 518.759 517.491L619.274 517.347C620.361 517.347 621.403 516.916 622.171 516.147C622.939 515.379 623.37 514.337 623.37 513.251L543.417 512.923Z" fill="#96D959"/>
<path opacity="0.2" d="M515.953 513.169C515.605 516.364 516.997 517.511 518.759 517.491H553.575C551.281 517.491 548.373 515.258 548.373 512.964L515.953 513.169Z" fill="white"/>
<path opacity="0.2" d="M543.417 512.923L515.953 513.169C515.605 516.364 516.997 517.511 518.759 517.491L619.274 517.347C620.361 517.347 621.403 516.916 622.171 516.147C622.939 515.379 623.37 514.337 623.37 513.251L543.417 512.923Z" fill="white"/>
<path d="M374.231 518.146H383.365V514.52H374.231V518.146Z" fill="#263238"/>
<path d="M374.784 516.303L443.781 515.565C452.26 515.565 455.045 499.527 455.045 493.341C455.029 488.301 453.018 483.472 449.453 479.91C445.888 476.349 441.058 474.343 436.019 474.332H369.807C366.825 474.338 363.966 475.524 361.856 477.631C359.745 479.738 358.554 482.595 358.543 485.578C358.543 485.578 359.915 516.303 374.784 516.303Z" fill="#96D959"/>
<g opacity="0.5">
<g opacity="0.7">
<path d="M374.784 516.303L443.781 515.565C452.26 515.565 455.045 499.527 455.045 493.341C455.029 488.301 453.018 483.472 449.453 479.91C445.888 476.349 441.058 474.343 436.019 474.332H369.807C366.825 474.338 363.966 475.524 361.856 477.631C359.745 479.738 358.554 482.595 358.543 485.578C358.543 485.578 359.915 516.303 374.784 516.303Z" fill="white"/>
</g>
</g>
<path d="M367.903 474.517L435.056 474.373C444.483 474.347 453.663 477.388 461.209 483.038L469.401 489.183C469.803 489.489 470.097 489.914 470.243 490.398C470.388 490.881 470.377 491.398 470.211 491.875C470.046 492.352 469.733 492.764 469.32 493.053C468.906 493.342 468.411 493.493 467.906 493.484L400.65 491.825L367.903 474.517Z" fill="#96D959"/>
<path opacity="0.5" d="M367.903 474.517L433.582 474.373C444.334 474.373 453.284 476.545 462.397 483.919L471.429 490.678C471.693 490.874 471.888 491.148 471.986 491.462C472.084 491.775 472.081 492.112 471.976 492.423C471.872 492.735 471.671 493.005 471.404 493.195C471.136 493.386 470.815 493.487 470.487 493.484L401.715 492.255L367.903 474.517Z" fill="white"/>
<path d="M458.507 518.146H467.641V514.52H458.507V518.146Z" fill="#263238"/>
<path d="M397.803 518.146H406.938V514.52H397.803V518.146Z" fill="#263238"/>
<path d="M433.05 518.146H442.184V514.52H433.05V518.146Z" fill="#263238"/>
<path d="M402.309 516.303H463.749C467.466 516.292 471.028 514.81 473.657 512.181C476.286 509.552 477.767 505.989 477.778 502.271C477.767 498.553 476.286 494.991 473.657 492.362C471.028 489.733 467.466 488.251 463.749 488.24H402.309C398.592 488.251 395.03 489.733 392.401 492.362C389.773 494.991 388.291 498.553 388.28 502.271C388.291 505.989 389.773 509.552 392.401 512.181C395.03 514.81 398.592 516.292 402.309 516.303Z" fill="#96D959"/>
<mask id="mask0_177_2217" style="mask-type:luminance" maskUnits="userSpaceOnUse" x="406" y="495" width="54" height="17">
<path d="M415.048 511.776H451.072C453.245 511.776 455.328 510.913 456.865 509.376C458.401 507.84 459.264 505.755 459.264 503.582C459.264 501.409 458.401 499.325 456.865 497.789C455.328 496.252 453.245 495.389 451.072 495.389H415.048C412.875 495.389 410.791 496.252 409.255 497.789C407.719 499.325 406.856 501.409 406.856 503.582C406.856 505.755 407.719 507.84 409.255 509.376C410.791 510.913 412.875 511.776 415.048 511.776Z" fill="white"/>
</mask>
<g mask="url(#mask0_177_2217)">
<path d="M461.885 496.966H402.125V499.322H461.885V496.966Z" fill="#263238"/>
<path d="M461.885 500.633H402.125V502.989H461.885V500.633Z" fill="#263238"/>
<path d="M461.885 504.32H402.125V506.675H461.885V504.32Z" fill="#263238"/>
<path d="M461.885 507.986H402.125V510.342H461.885V507.986Z" fill="#263238"/>
</g>
<path d="M384.102 474.127L384.491 474.517L395.551 479.494C406.262 484.451 412.098 483.959 410.296 479.494C410.296 479.494 408.371 461.694 396.554 461.694C393.255 461.694 390.091 463.003 387.757 465.334C385.422 467.666 384.108 470.828 384.102 474.127Z" fill="#96D959"/>
<g opacity="0.7">
<path d="M384.102 474.127L384.491 474.517L395.551 479.494C406.262 484.451 412.098 483.959 410.296 479.494C410.296 479.494 408.371 461.694 396.554 461.694C393.255 461.694 390.091 463.003 387.757 465.334C385.422 467.666 384.108 470.828 384.102 474.127Z" fill="white"/>
</g>
<path d="M620.421 523.697V735.269H614.933L608.01 523.697H620.421Z" fill="#263238"/>
<path d="M555.52 530.62V735.228H550.031L543.109 530.62H555.52Z" fill="#263238"/>
<path opacity="0.5" d="M555.52 530.62V735.228H550.031L543.109 530.62H555.52Z" fill="black"/>
<path d="M290.714 523.697V732.361H296.202L303.124 523.697H290.714Z" fill="#263238"/>
<path opacity="0.5" d="M290.714 523.697V732.361H296.202L303.124 523.697H290.714Z" fill="black"/>
<path d="M355.615 530.62V733.979H361.103L368.025 530.62H355.615Z" fill="#263238"/>
<path d="M662.405 517.327H252.723V526.196H662.405V517.327Z" fill="#263238"/>
<path d="M279.675 535.7H633.405L647.741 526.196H265.318L279.675 535.7Z" fill="#263238"/>
<path opacity="0.5" d="M279.675 535.7H633.405L647.741 526.196H265.318L279.675 535.7Z" fill="black"/>
</svg>
